<?xml version="1.0" encoding="utf-8"?>
<!-- Generator: Adobe Illustrator 24.0.0, SVG Export Plug-In . SVG Version: 6.00 Build 0)  -->
<svg version="1.1" id="Layer_1" xmlns="http://www.w3.org/2000/svg" xmlns:xlink="http://www.w3.org/1999/xlink" x="0px" y="0px"
	 viewBox="0 0 60 60" style="enable-background:new 0 0 60 60;" xml:space="preserve">
<style type="text/css">
	.st0{fill:#19558F;}
</style>
<g>
	<path class="st0" d="M43.3,18.3c3.7,0,6.7-3,6.7-6.7S47,5,43.3,5s-6.7,3-6.7,6.7S39.7,18.3,43.3,18.3z M43.3,6.7c2.8,0,5,2.2,5,5
		s-2.2,5-5,5c-2.8,0-5-2.2-5-5S40.6,6.7,43.3,6.7z"/>
	<path class="st0" d="M48.3,21.7h-10L30,30l-8.3-8.3h-10c-1.8,0-3.3,1.5-3.3,3.3v13.3l3.3,3.3v11.7c0,0.9,0.7,1.7,1.7,1.7H20
		c0.9,0,1.7-0.7,1.7-1.7V30l8.3,8.3l8.3-8.3v23.3c0,0.9,0.7,1.7,1.7,1.7h6.7c0.9,0,1.7-0.7,1.7-1.7V41.7l3.3-3.3V25
		C51.7,23.2,50.2,21.7,48.3,21.7z"/>
	<path class="st0" d="M16.7,18.3c3.7,0,6.7-3,6.7-6.7S20.3,5,16.7,5S10,8,10,11.7S13,18.3,16.7,18.3z M16.7,6.7c2.8,0,5,2.2,5,5
		s-2.2,5-5,5s-5-2.2-5-5S13.9,6.7,16.7,6.7z"/>
</g>
</svg>
