<?xml version="1.0" encoding="utf-8"?>
<!-- Generator: Adobe Illustrator 24.0.0, SVG Export Plug-In . SVG Version: 6.00 Build 0)  -->
<svg version="1.1" id="Layer_1" xmlns="http://www.w3.org/2000/svg" xmlns:xlink="http://www.w3.org/1999/xlink" x="0px" y="0px"
	 viewBox="0 0 60 60" style="enable-background:new 0 0 60 60;" xml:space="preserve">
<style type="text/css">
	.st0{fill:#19558F;}
</style>
<path class="st0" d="M55,28.2h-1.8c-0.8-4.7-4.9-8.3-9.9-8.3c-2.3,0-4.3,0.8-6,2l-0.1-0.1c-2-1.8-4.6-2.8-7.2-2.8s-5.2,1-7.2,2.8
	l-0.1,0.1c-1.7-1.3-3.8-2-6-2c-4.9,0-9.1,3.6-9.9,8.3H5v3.3h1.8c0.8,4.7,4.9,8.3,9.9,8.3c5.5,0,10-4.5,10-10c0-2.7-1-5.1-2.7-6.9
	c1.7-1.5,3.8-2.3,6.1-2.3c2.2,0,4.4,0.8,6.1,2.3c-1.7,1.8-2.7,4.2-2.7,6.9c0,5.5,4.5,10,10,10c4.9,0,9.1-3.6,9.9-8.3H55V28.2z
	 M16.7,36.6c-3.7,0-6.7-3-6.7-6.7c0-3.7,3-6.7,6.7-6.7s6.7,3,6.7,6.7C23.3,33.6,20.3,36.6,16.7,36.6z M43.3,36.6
	c-3.7,0-6.7-3-6.7-6.7c0-3.7,3-6.7,6.7-6.7c3.7,0,6.7,3,6.7,6.7C50,33.6,47,36.6,43.3,36.6z"/>
</svg>
