<?xml version="1.0" encoding="utf-8"?>
<!-- Generator: Adobe Illustrator 24.0.0, SVG Export Plug-In . SVG Version: 6.00 Build 0)  -->
<svg version="1.1" id="Layer_1" xmlns="http://www.w3.org/2000/svg" xmlns:xlink="http://www.w3.org/1999/xlink" x="0px" y="0px"
	 viewBox="0 0 60 60" style="enable-background:new 0 0 60 60;" xml:space="preserve">
<style type="text/css">
	.st0{fill:#19558F;}
</style>
<g>
	<circle class="st0" cx="30" cy="16.7" r="5"/>
	<path class="st0" d="M30,35c2.8,0,5-2.2,5-5c0-2.8-2.2-5-5-5c-2.8,0-5,2.2-5,5C25,32.8,27.2,35,30,35z M30,26.7
		c1.8,0,3.3,1.5,3.3,3.3c0,1.8-1.5,3.3-3.3,3.3c-1.8,0-3.3-1.5-3.3-3.3C26.7,28.2,28.2,26.7,30,26.7z"/>
	<path class="st0" d="M30,48.3c2.8,0,5-2.2,5-5c0-2.8-2.2-5-5-5c-2.8,0-5,2.2-5,5C25,46.1,27.2,48.3,30,48.3z M30,40
		c1.8,0,3.3,1.5,3.3,3.3c0,1.8-1.5,3.3-3.3,3.3c-1.8,0-3.3-1.5-3.3-3.3C26.7,41.5,28.2,40,30,40z"/>
	<path class="st0" d="M48.3,25h-6.7v-3.3l6.7-10h-6.7V5H18.3v6.7h-6.7l6.7,10V25h-6.7l6.7,10v3.3h-6.7l6.7,10V55h23.3v-6.7l6.7-10
		h-6.7V35L48.3,25z M40,53.3H20V6.7h20V53.3z"/>
</g>
</svg>
