<svg id="Layer_1" data-name="Layer 1" xmlns="http://www.w3.org/2000/svg" viewBox="0 0 800 600"><defs><style>.cls-1{fill:#fff;}.cls-2{fill:#f9e8d4;}.cls-3{fill:#eee;}.cls-10,.cls-4{fill:#282d3c;}.cls-5,.cls-8{fill:#584f49;}.cls-6{fill:none;stroke:#e0d0be;}.cls-10,.cls-6,.cls-9{stroke-miterlimit:10;}.cls-7{fill:#798ea4;}.cls-8{opacity:0.6;}.cls-9{fill:#e8a798;stroke:#e8a798;}.cls-10{stroke:#fff;}</style></defs><title>blueslidepark</title><rect class="cls-1" width="800" height="600"/><polygon class="cls-2" points="417.02 167.42 399.74 187.17 383.69 167.42 391.1 167.42 391.1 158.78 400.36 158.78 409.61 158.78 409.61 167.42 417.02 167.42"/><rect class="cls-2" x="341.55" y="317.09" width="16.71" height="27.71" rx="4"/><rect class="cls-2" x="443.19" y="317.09" width="16.71" height="27.71" rx="4"/><path class="cls-3" d="M459.69,289.6V183.33a7,7,0,0,0-7-6.88h-2.77a7,7,0,0,0-7,6.88V313.58a6.81,6.81,0,0,0,.49,2.48v4.4h16.79V289.6Z"/><path class="cls-3" d="M358.05,289.6V183.33a7,7,0,0,0-7-6.88h-2.77a7,7,0,0,0-7,6.88V313.58a6.81,6.81,0,0,0,.49,2.48v4.4h16.79V289.6Z"/><polygon class="cls-3" points="399.79 305.67 417.47 329.14 430.64 295.8 439.13 248.15 439.13 173.33 417.47 167.16 417.47 167.16 399.79 187.17 399.79 305.67"/><polygon class="cls-3" points="399.79 305.67 384.14 329.14 368.93 295.8 362.47 248.15 362.47 173.33 384.14 167.16 384.14 167.16 399.79 187.17 399.79 305.67"/><polygon class="cls-4" points="433.91 525.91 405.62 525.91 405.62 296.17 430.21 296.17 433.91 525.91"/><polygon class="cls-3" points="404.54 171.44 412.99 162.44 418.39 167.51 406.56 180.11 404.54 171.44"/><polygon class="cls-3" points="396.17 171.44 387.72 162.44 382.32 167.51 394.15 180.11 396.17 171.44"/><polygon class="cls-4" points="394.09 525.91 365.8 525.91 368.26 296.17 392.85 296.17 394.09 525.91"/><polygon class="cls-4" points="430.32 320.48 368.6 320.48 367.37 295.8 429.09 295.8 430.32 320.48"/><rect class="cls-4" x="389.35" y="164.2" width="5.19" height="34.12" transform="translate(-31.73 264.79) rotate(-35.97)"/><rect class="cls-4" x="407.02" y="164.2" width="5.19" height="34.12" transform="translate(634.65 568.55) rotate(-144.03)"/><polygon class="cls-4" points="405.49 199.7 396.64 199.7 392.43 187.68 409.71 187.68 405.49 199.7"/><polygon class="cls-4" points="408.47 235.55 401.06 243.47 393.66 235.55 395.64 216.51 396.63 197.46 401.06 197.46 406.49 197.46 406.49 216.51 408.47 235.55"/><path class="cls-2" d="M427.66,122c0,11.81-3.11,22.51-8.15,30.25s-12,12.53-19.68,12.53-14.64-4.79-19.68-12.53S372,133.76,372,122s-1.57-22.51,3.47-30.25,16.68-12.53,24.36-12.53S419.16,84,424.19,91.7,427.66,110.13,427.66,122Z"/><path class="cls-2" d="M431.71,128.69a11.37,11.37,0,0,1-2.77,7.54,8.71,8.71,0,0,1-13.36,0,11.63,11.63,0,0,1,0-15.07,8.91,8.91,0,0,1,6.68-3.12c2.61,0,8.09,1.19,9.8,3.12S431.71,125.75,431.71,128.69Z"/><path class="cls-2" d="M368,128.69a11.36,11.36,0,0,0,2.76,7.54,8.72,8.72,0,0,0,13.37,0,11.67,11.67,0,0,0,0-15.07A8.93,8.93,0,0,0,377.4,118c-2.6,0-8.09,1.19-9.8,3.12S368,125.75,368,128.69Z"/><path class="cls-5" d="M430.6,99.57a102.51,102.51,0,0,1-.05,10.62c-.38,3.92-1.44,7.61-4.2,9.3-5-9.86.25-18-4.66-22.42s-20-6.4-24.24-6.4S380.29,92.85,377,97.46s3,12.88-4.39,22.57c-2.76-1.69-3.55-5.52-3.63-9.57s.51-8.32.51-10.89a12.58,12.58,0,0,1,2.4-7.24,21.6,21.6,0,0,1,6.55-5.91,57.54,57.54,0,0,1,9.72-4.83,31.81,31.81,0,0,1,23.8,0,57.42,57.42,0,0,1,9.71,4.83,21.52,21.52,0,0,1,6.56,5.91A12.65,12.65,0,0,1,430.6,99.57Z"/><line class="cls-6" x1="390.03" y1="102.43" x2="409.63" y2="102.43"/><line class="cls-6" x1="392.57" y1="106.69" x2="407.39" y2="106.69"/><circle class="cls-7" cx="388.6" cy="125.65" r="2.88"/><circle class="cls-7" cx="411.06" cy="125.65" r="2.88"/><path class="cls-8" d="M384.2,119.31a5,5,0,0,1,.91-1.3,4.94,4.94,0,0,1,7,0,5,5,0,0,1,.91,1.3h1.35a6.15,6.15,0,0,0-11.51,0Z"/><path class="cls-8" d="M406.65,119.31a4.79,4.79,0,0,1,.92-1.3,4.93,4.93,0,0,1,7,0,4.75,4.75,0,0,1,.91,1.3h1.35a6.16,6.16,0,0,0-10.12-2.17,6.26,6.26,0,0,0-1.39,2.17Z"/><rect class="cls-9" x="393.66" y="143.78" width="12.34" height="2.84" rx="1.15"/><path class="cls-8" d="M389.36,156.67c-14.88-7.34-17.25-47.2-17.25-35.22s3.16,22.82,8.27,30.67c4.89,7.51,11.55,12.27,18.94,12.67v0l.51,0,.51,0v0c7.39-.4,14.06-5.16,18.94-12.67,5.11-7.85,8.27-18.69,8.27-30.67s-2.37,27.88-17.25,35.22"/><path class="cls-10" d="M400.4,539.17a20.39,20.39,0,0,1,40.77,0"/><path class="cls-10" d="M399.26,539.17a20.39,20.39,0,0,0-40.77,0"/></svg>