<svg id="Layer_1" data-name="Layer 1" xmlns="http://www.w3.org/2000/svg" viewBox="0 0 800 600"><defs><style>.cls-1{fill:#fff;}.cls-2,.cls-3{fill:orange;}.cls-13,.cls-2{stroke:#a09998;}.cls-13,.cls-2,.cls-7,.cls-9{stroke-miterlimit:10;}.cls-2{stroke-width:0.25px;}.cls-4{fill:#00758f;}.cls-5{fill:#f9e8d4;}.cls-6{fill:#798ea4;}.cls-7{fill:none;stroke:#e0d0be;}.cls-8{fill:#584f49;opacity:0.6;}.cls-9{fill:#e8a798;stroke:#e8a798;}.cls-10,.cls-13{fill:#282d3c;}.cls-11{fill:#eee;}.cls-12{fill:#a09998;}.cls-13{opacity:0.7;}</style></defs><title>circles</title><rect class="cls-1" width="800" height="600"/><path class="cls-2" d="M434.23,112.83c0,7-15.35,12.63-34.29,12.63s-34.29-5.65-34.29-12.63"/><ellipse class="cls-3" cx="399.94" cy="166.97" rx="25.27" ry="9.86"/><polygon class="cls-4" points="394.64 524.19 366.58 524.19 369.03 296.33 393.42 296.33 394.64 524.19"/><polygon class="cls-4" points="433.82 524.19 405.76 524.19 405.76 296.33 430.14 296.33 433.82 524.19"/><rect class="cls-1" x="367.98" y="246.52" width="64.43" height="64.43"/><polygon class="cls-5" points="419.99 172.68 399.2 201.51 379.89 172.68 388.8 172.68 388.8 160.07 399.94 160.07 411.08 160.07 411.08 172.68 419.99 172.68"/><rect class="cls-5" x="342.18" y="317.08" width="16.57" height="27.48" rx="4"/><rect class="cls-5" x="441.77" y="317.08" width="16.57" height="27.48" rx="4"/><path class="cls-3" d="M458.13,289.82V184.41a6.9,6.9,0,0,0-6.95-6.81h-2.74a6.9,6.9,0,0,0-7,6.81v129.2a6.49,6.49,0,0,0,.49,2.45v4.37h16.65V289.82Z"/><path class="cls-3" d="M358.55,289.82V184.41a6.9,6.9,0,0,0-7-6.81h-2.74a6.9,6.9,0,0,0-7,6.81v129.2a6.68,6.68,0,0,0,.48,2.45v4.37H359V289.82Z"/><path class="cls-5" d="M427.55,121.6c0,11.71-3.09,22.32-8.09,30S407.56,164,399.94,164s-14.52-4.75-19.52-12.43-8.08-18.29-8.08-30-1.56-22.33,3.44-30,16.54-12.43,24.16-12.43,19.17,4.75,24.16,12.43S427.55,109.88,427.55,121.6Z"/><path class="cls-5" d="M431.56,128.29a11.22,11.22,0,0,1-2.75,7.47,8.65,8.65,0,0,1-13.25,0,11.52,11.52,0,0,1,0-14.94,8.85,8.85,0,0,1,6.62-3.1c2.59,0,8,1.19,9.73,3.1S431.56,125.37,431.56,128.29Z"/><path class="cls-5" d="M368.33,128.29a11.26,11.26,0,0,0,2.74,7.47,8.66,8.66,0,0,0,13.26,0,11.55,11.55,0,0,0,0-14.94,8.87,8.87,0,0,0-6.63-3.1c-2.59,0-8,1.19-9.72,3.1S368.33,125.37,368.33,128.29Z"/><circle class="cls-6" cx="388.81" cy="125.27" r="2.86"/><circle class="cls-6" cx="411.08" cy="125.27" r="2.86"/><line class="cls-7" x1="390.22" y1="102.24" x2="409.66" y2="102.24"/><line class="cls-7" x1="392.6" y1="106.47" x2="407.29" y2="106.47"/><path class="cls-8" d="M384.44,119a4.72,4.72,0,0,1,.9-1.3,4.91,4.91,0,0,1,6.93,0,5,5,0,0,1,.91,1.3h1.33a6.21,6.21,0,0,0-1.37-2.17,6.09,6.09,0,0,0-10,2.17Z"/><path class="cls-8" d="M406.71,119a4.72,4.72,0,0,1,.9-1.3,4.91,4.91,0,0,1,6.93,0,5,5,0,0,1,.91,1.3h1.33a6.08,6.08,0,0,0-11.41,0Z"/><rect class="cls-9" x="393.82" y="143.25" width="12.24" height="2.82" rx="1.15"/><path class="cls-8" d="M410.42,155.14c-5.72,6.24-3.59-4.2-9.85-5.44v-.12q-.33,0-.63,0c-.2,0-.41,0-.62,0v.12c-6.26,1.24-4.14,11.68-9.86,5.44-14.91-7.35-17.28-47.27-17.28-35.28s3.17,22.86,8.28,30.73c4.89,7.52,11.57,12.28,19,12.68v0l.51,0,.51,0v0c7.4-.4,14.08-5.16,19-12.68,5.12-7.87,8.28-18.73,8.28-30.73S425.33,147.79,410.42,155.14Z"/><path class="cls-10" d="M400.76,537.29a20.22,20.22,0,1,1,40.44,0"/><path class="cls-10" d="M399.63,537.29a20.22,20.22,0,1,0-40.43,0"/><polygon class="cls-3" points="399.63 372.84 363.4 376.18 362.79 343.25 362.79 278.17 362.79 176.75 384.18 168.38 384.18 168.38 402.08 183.26 399.63 372.84"/><path class="cls-11" d="M360.18,533a20.3,20.3,0,0,0-1,6.22h40.43a20.3,20.3,0,0,0-1-6.22Z"/><path class="cls-11" d="M401.75,533a20,20,0,0,0-1,6.22H441.2a20.3,20.3,0,0,0-1-6.22Z"/><polygon class="cls-3" points="401.32 372.84 437.56 376.18 438.16 343.25 438.16 278.17 438.16 176.75 416.77 168.38 416.77 168.38 398.87 183.26 401.32 372.84"/><rect class="cls-2" x="393.82" y="176.38" width="12.24" height="195.88"/><circle class="cls-12" cx="400.23" cy="210.58" r="3.53"/><circle class="cls-12" cx="400.23" cy="244.08" r="3.53"/><circle class="cls-12" cx="399.66" cy="277.57" r="3.53"/><circle class="cls-12" cx="400.23" cy="311.07" r="3.53"/><circle class="cls-12" cx="400.23" cy="344.56" r="3.53"/><polygon class="cls-3" points="394.98 181.37 380.26 178.6 383.63 159.12 403.88 178.6 394.98 181.37"/><polygon class="cls-3" points="404.9 181.37 419.62 178.6 416.25 159.12 396 178.6 404.9 181.37"/><rect class="cls-2" x="410.14" y="198.13" width="24.49" height="24.49"/><rect class="cls-2" x="365.95" y="198.13" width="24.49" height="24.49"/><polygon class="cls-2" points="390.43 207.72 378.19 211.4 365.95 207.72 365.95 205.28 365.95 199.15 378.19 199.15 390.43 199.15 390.43 205.28 390.43 207.72"/><polygon class="cls-2" points="434.63 207.72 422.39 211.4 410.14 207.72 410.14 205.28 410.14 199.15 422.39 199.15 434.63 199.15 434.63 205.28 434.63 207.72"/><polygon class="cls-2" points="429.32 106.31 399.94 106.31 370.56 106.31 374.85 94.07 377.9 81.83 399.94 79.38 421.98 81.83 425.04 94.07 429.32 106.31"/><circle class="cls-13" cx="385.9" cy="125.27" r="11.02"/><circle class="cls-13" cx="413.99" cy="125.27" r="11.02"/><rect class="cls-12" x="396.33" y="118.75" width="7.35" height="2.45"/><path class="cls-6" d="M388.32,174.11c-4.25,3.41-7.47,9.79-5.26,15.2,1.3,3.19,4.6,4.44,6.34,7.25a9.44,9.44,0,0,1,.28,9.37c-1.21,2.18-4.94,5.8-2.1,8.2.74.62,1.8-.44,1.06-1.06-1.62-1.37.69-4,1.56-5.21a10.61,10.61,0,0,0,2-4.68,10.77,10.77,0,0,0-3.09-9.36c-1.48-1.42-3.29-2.51-4.29-4.36a8.37,8.37,0,0,1-.85-4.92,14.41,14.41,0,0,1,5.45-9.37c.75-.61-.32-1.66-1.06-1.06Z"/><path class="cls-6" d="M412.46,175.72c-1,6.34,5,10.45,6.78,16,2.74,8.44-10.9,8.71-10.68,16.45a8,8,0,0,0,2.07,4.6c1.1,1.41,2.79,3.06,2.47,5-.16.94,1.29,1.35,1.44.4.54-3.32-2.32-5.3-3.8-7.88-2.51-4.38,2.68-7.27,5.7-9.31,2.66-1.81,4.94-4.29,4.65-7.72-.25-2.84-2-5.34-3.49-7.65-1.83-2.76-4.24-6-3.7-9.48.15-.94-1.3-1.35-1.44-.4Z"/><path class="cls-2" d="M365.65,113.34c0-3.49,3.84-6.65,10-8.93s14.78-3.7,24.25-3.7,18,1.41,24.25,3.7,10,5.44,10,8.93"/><path class="cls-5" d="M428,113.84c0-2.68-12.44-4.86-27.79-4.86s-27.8,2.18-27.8,4.86"/></svg>