<svg id="Layer_1" data-name="Layer 1" xmlns="http://www.w3.org/2000/svg" viewBox="0 0 800 600"><defs><style>.cls-1{fill:#fff;}.cls-2,.cls-9{fill:#282d3c;}.cls-3{fill:#f9e8d4;}.cls-4{fill:#798ea4;}.cls-5{fill:none;stroke:#e0d0be;}.cls-5,.cls-7,.cls-8{stroke-miterlimit:10;}.cls-11,.cls-6{fill:#584f49;}.cls-6{opacity:0.6;}.cls-7{fill:#e8a798;stroke:#e8a798;}.cls-8{fill:#cd212a;stroke:#fff;}.cls-9{opacity:0.7;}.cls-10{fill:#9b4722;}</style></defs><title>devinefeminine</title><rect class="cls-1" width="800" height="600"/><polygon class="cls-2" points="394.45 523.82 366.18 523.82 368.65 294.26 393.22 294.26 394.45 523.82"/><polygon class="cls-2" points="433.92 523.82 405.65 523.82 405.65 294.26 430.22 294.26 433.92 523.82"/><rect class="cls-1" x="367.59" y="244.07" width="64.92" height="64.92"/><polygon class="cls-3" points="420.25 165.61 399.3 185.34 379.85 165.61 388.83 165.61 388.83 156.98 400.05 156.98 411.27 156.98 411.27 165.61 420.25 165.61"/><rect class="cls-3" x="340.36" y="315.16" width="16.7" height="27.69" rx="4"/><rect class="cls-3" x="441.93" y="315.16" width="16.7" height="27.69" rx="4"/><path class="cls-2" d="M458.42,287.69V181.5a7,7,0,0,0-7-6.87h-2.76a7,7,0,0,0-7,6.87V311.66a6.8,6.8,0,0,0,.49,2.47v4.4h16.78V287.69Z"/><path class="cls-2" d="M356.86,287.69V181.5a7,7,0,0,0-7-6.87h-2.76a7,7,0,0,0-7,6.87V311.66a6.59,6.59,0,0,0,.49,2.47v4.4h16.78V287.69Z"/><path class="cls-3" d="M427.86,120.71c0,11.11-3.11,21.18-8.15,28.46S407.73,161,400.05,161s-14.63-4.5-19.67-11.79-8.14-17.35-8.14-28.46-1.57-21.18,3.47-28.47,16.66-11.79,24.34-11.79S419.36,85,424.39,92.24,427.86,109.59,427.86,120.71Z"/><path class="cls-3" d="M431.9,127.05a10.3,10.3,0,0,1-2.77,7.09,9,9,0,0,1-13.35,0,10.47,10.47,0,0,1,0-14.17,9.13,9.13,0,0,1,6.68-2.94c2.61,0,8.08,1.12,9.79,2.94S431.9,124.29,431.9,127.05Z"/><path class="cls-3" d="M368.2,127.05a10.29,10.29,0,0,0,2.76,7.09,9.06,9.06,0,0,0,13.36,0,10.47,10.47,0,0,0,0-14.17,9.13,9.13,0,0,0-6.68-2.94c-2.61,0-8.09,1.12-9.8,2.94S368.2,124.29,368.2,127.05Z"/><circle class="cls-4" cx="388.83" cy="121.91" r="2.88"/><circle class="cls-4" cx="411.27" cy="121.91" r="2.88"/><line class="cls-5" x1="390.26" y1="98.71" x2="409.84" y2="98.71"/><line class="cls-5" x1="392.65" y1="102.97" x2="407.45" y2="102.97"/><path class="cls-6" d="M384.43,115.58a4.91,4.91,0,0,1,7.89-1.3,4.75,4.75,0,0,1,.91,1.3h1.35a6.14,6.14,0,0,0-11.5,0Z"/><path class="cls-6" d="M406.86,115.58a4.79,4.79,0,0,1,.92-1.3,4.93,4.93,0,0,1,7,0,5,5,0,0,1,.91,1.3H417a6.26,6.26,0,0,0-1.39-2.17,6.14,6.14,0,0,0-10.11,2.17Z"/><rect class="cls-7" x="393.88" y="140.03" width="12.33" height="2.84" rx="1.15"/><path class="cls-6" d="M410.61,152c-5.76,6.28-3.63-4.24-9.93-5.48v-.12q-.33,0-.63,0t-.63,0v.12c-6.31,1.24-4.17,11.76-9.93,5.48-15-7.41-17.41-47.63-17.41-35.54s3.19,23,8.34,30.95c4.93,7.58,11.66,12.38,19.11,12.78v0l.51,0,.51,0v0c7.46-.4,14.19-5.2,19.11-12.78,5.16-7.92,8.35-18.86,8.35-30.95S425.63,144.6,410.61,152Z"/><path class="cls-8" d="M400.62,537a20.37,20.37,0,0,1,40.74,0"/><path class="cls-8" d="M399.48,537a20.37,20.37,0,0,0-40.74,0"/><rect class="cls-9" x="380.36" y="115.82" width="17.27" height="14.8" rx="4"/><rect class="cls-9" x="402.47" y="115.82" width="17.27" height="14.8" rx="4"/><rect class="cls-2" x="379.08" y="117.11" width="41.94" height="1.23"/><rect class="cls-2" x="372.05" y="117.81" width="8.34" height="1.23" transform="translate(-11.58 46.45) rotate(-6.96)"/><rect class="cls-2" x="423.59" y="114.26" width="1.23" height="8.34" transform="translate(255 525.05) rotate(-83)"/><polygon class="cls-2" points="392.8 300.19 367.8 304.9 362.36 282.79 362.36 239.08 362.36 170.97 380.03 165.35 380.03 165.35 392.8 183.57 392.8 300.19"/><polygon class="cls-2" points="407.3 300.19 432.3 304.9 437.74 282.79 437.74 239.08 437.74 170.97 420.07 165.35 420.07 165.35 407.3 183.57 407.3 300.19"/><path class="cls-1" d="M399.72,216.13c.19.68.39,1.28.54,1.9.51,2.08-.13,3.1-2.21,3.63a1,1,0,0,1-1.35-.59c-.2.19-.38.35-.56.5a1.52,1.52,0,0,1-2.65-.67,8.77,8.77,0,0,1-.3-2.24c-.05-.75,0-1.51,0-2.46-.3.4-.52.69-.73,1-.58.77-1.09,1.6-1.73,2.31a1.48,1.48,0,0,1-2.38.13c-.94-.85-2-1.71-1.92-3.15a4.15,4.15,0,0,1,2.22-3.55,17.16,17.16,0,0,1,1.58-.75,6.9,6.9,0,0,1-4.16-2.87,1.73,1.73,0,0,1,.1-2.41,2.31,2.31,0,0,1,1.3-.52c.36,0,.51,0,.53-.43a2,2,0,0,1,2-2.09,1.58,1.58,0,0,1,1.48.74c.8,1.17,1.51,2.4,2.26,3.6.14.24.29.47.44.7l.22,0c0-.51,0-1,0-1.55a3.84,3.84,0,0,1,1.78-3.39c1-.83,2.19-.55,3.32-.51.24,0,.5.4.67.67a7.72,7.72,0,0,1,.78,5.74c.37-.14.69-.3,1-.39a2.51,2.51,0,0,1,3.37,2.37,4.16,4.16,0,0,1-2.49,4.24,7.27,7.27,0,0,1-2.35.2A4,4,0,0,1,399.72,216.13Zm-3-4.32c.08-.75-.23-1.09-.9-1a2.79,2.79,0,0,0-2.39,2.09,2,2,0,0,0,.77,2,1.35,1.35,0,0,0,1.86-.1,6.45,6.45,0,0,0,1.34-1.32C398.08,212.57,397.85,212,396.73,211.81Z"/><path class="cls-1" d="M391.93,266.2c.2.68.39,1.28.54,1.9.51,2.08-.13,3.1-2.21,3.63a1,1,0,0,1-1.34-.58l-.57.49a1.51,1.51,0,0,1-2.64-.67,8.77,8.77,0,0,1-.31-2.24c0-.75,0-1.51,0-2.46l-.74,1c-.57.77-1.09,1.6-1.73,2.31a1.48,1.48,0,0,1-2.38.14c-.94-.86-2-1.72-1.92-3.16a4.17,4.17,0,0,1,2.22-3.55c.46-.27,1-.46,1.58-.75a6.87,6.87,0,0,1-4.15-2.86,1.74,1.74,0,0,1,.09-2.42,2.26,2.26,0,0,1,1.3-.51c.37,0,.51,0,.53-.44a2,2,0,0,1,2.05-2.09,1.59,1.59,0,0,1,1.48.74c.8,1.17,1.51,2.4,2.26,3.6l.44.7.23,0c0-.52,0-1,0-1.56a3.89,3.89,0,0,1,1.78-3.39c1-.83,2.2-.55,3.33-.51.23,0,.5.4.67.67a7.71,7.71,0,0,1,.77,5.74c.37-.14.69-.3,1-.39a2.52,2.52,0,0,1,3.37,2.38,4.17,4.17,0,0,1-2.49,4.23,7.35,7.35,0,0,1-2.36.2A4.22,4.22,0,0,1,391.93,266.2Zm-3-4.32q.12-1.12-.9-1a2.78,2.78,0,0,0-2.38,2.09,2,2,0,0,0,.76,2,1.35,1.35,0,0,0,1.86-.1,6.5,6.5,0,0,0,1.35-1.32C390.3,262.64,390.07,262.12,388.94,261.88Z"/><path class="cls-1" d="M372.62,288.3c.19.67.39,1.28.54,1.89.51,2.08-.13,3.1-2.21,3.64a1,1,0,0,1-1.35-.59l-.56.5a1.52,1.52,0,0,1-2.64-.68,8.77,8.77,0,0,1-.31-2.24c0-.75,0-1.5,0-2.46l-.74,1c-.57.77-1.09,1.6-1.73,2.31a1.48,1.48,0,0,1-2.38.14c-.94-.85-2-1.72-1.92-3.16a4.16,4.16,0,0,1,2.22-3.55c.46-.27,1-.46,1.58-.75a6.88,6.88,0,0,1-4.16-2.86,1.73,1.73,0,0,1,.1-2.41,2.31,2.31,0,0,1,1.3-.52c.36,0,.51-.05.53-.44a2,2,0,0,1,2.05-2.09,1.59,1.59,0,0,1,1.48.75c.8,1.17,1.51,2.39,2.26,3.6l.44.7.22,0c0-.52,0-1,0-1.55a3.85,3.85,0,0,1,1.78-3.4c1-.83,2.2-.55,3.32-.51.24,0,.5.41.68.67a7.76,7.76,0,0,1,.77,5.74c.37-.14.69-.3,1-.39a2.51,2.51,0,0,1,3.36,2.38,4.15,4.15,0,0,1-2.48,4.23,7.65,7.65,0,0,1-2.36.21A4.9,4.9,0,0,1,372.62,288.3Zm-3-4.33c.08-.75-.22-1.08-.9-1a2.8,2.8,0,0,0-2.38,2.1,2,2,0,0,0,.76,2A1.36,1.36,0,0,0,369,287a6.5,6.5,0,0,0,1.34-1.33C371,284.73,370.75,284.21,369.63,284Z"/><path class="cls-1" d="M381.18,238.15c.19.68.39,1.28.54,1.9.5,2.08-.13,3.1-2.22,3.63a1,1,0,0,1-1.34-.58l-.56.49a1.52,1.52,0,0,1-2.65-.67,9.24,9.24,0,0,1-.31-2.24c-.05-.75,0-1.51,0-2.46l-.74,1c-.57.77-1.08,1.6-1.72,2.31a1.49,1.49,0,0,1-2.39.14c-.93-.85-2-1.72-1.92-3.16a4.18,4.18,0,0,1,2.23-3.55,17.16,17.16,0,0,1,1.58-.75,6.92,6.92,0,0,1-4.16-2.86,1.75,1.75,0,0,1,.09-2.42,2.26,2.26,0,0,1,1.3-.51c.37,0,.52,0,.53-.44a2,2,0,0,1,2.06-2.09,1.6,1.6,0,0,1,1.48.74c.79,1.18,1.51,2.4,2.25,3.6l.45.7.22,0c0-.52,0-1,0-1.56a3.88,3.88,0,0,1,1.79-3.39c1-.83,2.19-.55,3.32-.51.23,0,.5.4.67.67a7.67,7.67,0,0,1,.77,5.74c.38-.14.7-.3,1-.39a2.51,2.51,0,0,1,3.37,2.38,4.16,4.16,0,0,1-2.49,4.23,7.27,7.27,0,0,1-2.35.2A3.42,3.42,0,0,1,381.18,238.15Zm-3-4.32c.08-.75-.22-1.09-.89-1a2.81,2.81,0,0,0-2.39,2.09,2,2,0,0,0,.77,2,1.34,1.34,0,0,0,1.85-.1,6.26,6.26,0,0,0,1.35-1.32C379.54,234.59,379.31,234.07,378.18,233.83Z"/><path class="cls-1" d="M380.71,196c.2.67.39,1.28.54,1.89.51,2.08-.13,3.11-2.21,3.64a1,1,0,0,1-1.35-.59l-.56.5a1.52,1.52,0,0,1-2.64-.68,8.71,8.71,0,0,1-.31-2.24c-.05-.75,0-1.5,0-2.46l-.74,1a28.35,28.35,0,0,1-1.73,2.31,1.48,1.48,0,0,1-2.38.14c-.94-.85-2-1.72-1.92-3.16a4.18,4.18,0,0,1,2.22-3.55c.46-.27,1-.46,1.58-.75a6.79,6.79,0,0,1-4.15-2.86,1.73,1.73,0,0,1,.09-2.41,2.34,2.34,0,0,1,1.3-.52c.36,0,.51-.05.53-.44a2,2,0,0,1,2-2.09,1.58,1.58,0,0,1,1.48.75c.8,1.17,1.51,2.39,2.26,3.6.15.23.3.46.44.7l.23,0c0-.52,0-1,0-1.55a3.9,3.9,0,0,1,1.78-3.4c1-.83,2.2-.55,3.33-.51.23,0,.5.41.67.67a7.72,7.72,0,0,1,.77,5.74c.37-.14.69-.3,1-.39a2.52,2.52,0,0,1,3.37,2.38,4.17,4.17,0,0,1-2.49,4.23,7.65,7.65,0,0,1-2.36.21A5.2,5.2,0,0,1,380.71,196Zm-3-4.32c.08-.76-.22-1.09-.9-1a2.77,2.77,0,0,0-2.38,2.09,2,2,0,0,0,.76,2,1.34,1.34,0,0,0,1.86-.09,6.55,6.55,0,0,0,1.35-1.33C379.08,192.39,378.85,191.87,377.72,191.64Z"/><path class="cls-1" d="M435.14,234.75c.19.67.39,1.28.54,1.89.51,2.08-.13,3.1-2.21,3.63a1,1,0,0,1-1.35-.58l-.56.5a1.52,1.52,0,0,1-2.64-.68,8.77,8.77,0,0,1-.31-2.24c-.05-.75,0-1.5,0-2.46l-.74,1c-.57.77-1.09,1.6-1.73,2.31a1.48,1.48,0,0,1-2.38.14c-.94-.85-2-1.72-1.92-3.16a4.15,4.15,0,0,1,2.22-3.55c.46-.27,1-.46,1.58-.75a6.92,6.92,0,0,1-4.16-2.86,1.73,1.73,0,0,1,.1-2.41,2.31,2.31,0,0,1,1.3-.52c.36,0,.51-.05.53-.44a2,2,0,0,1,2.05-2.09,1.59,1.59,0,0,1,1.48.75c.8,1.17,1.51,2.39,2.26,3.6l.44.7.22,0c0-.52,0-1,0-1.56a3.85,3.85,0,0,1,1.78-3.39c1-.83,2.2-.55,3.32-.51.24,0,.5.4.68.67a7.76,7.76,0,0,1,.77,5.74c.37-.14.69-.3,1-.39a2.51,2.51,0,0,1,3.36,2.38,4.15,4.15,0,0,1-2.48,4.23,7.35,7.35,0,0,1-2.36.2A4,4,0,0,1,435.14,234.75Zm-3-4.33c.08-.75-.22-1.08-.9-1a2.78,2.78,0,0,0-2.38,2.1,2,2,0,0,0,.76,2,1.36,1.36,0,0,0,1.86-.09,6.5,6.5,0,0,0,1.34-1.33C433.5,231.18,433.27,230.66,432.15,230.42Z"/><path class="cls-1" d="M435.14,176.92c.19.68.39,1.28.54,1.89.51,2.08-.13,3.11-2.21,3.64a1,1,0,0,1-1.35-.59l-.56.5a1.52,1.52,0,0,1-2.64-.68,8.71,8.71,0,0,1-.31-2.24c-.05-.75,0-1.5,0-2.46l-.74,1c-.57.78-1.09,1.6-1.73,2.32a1.48,1.48,0,0,1-2.38.13c-.94-.85-2-1.72-1.92-3.16a4.16,4.16,0,0,1,2.22-3.55c.46-.27,1-.46,1.58-.75a6.84,6.84,0,0,1-4.16-2.86,1.73,1.73,0,0,1,.1-2.41,2.31,2.31,0,0,1,1.3-.52c.36,0,.51,0,.53-.44a2,2,0,0,1,2.05-2.09,1.59,1.59,0,0,1,1.48.75c.8,1.17,1.51,2.4,2.26,3.6l.44.7.22,0c0-.52,0-1,0-1.55a3.85,3.85,0,0,1,1.78-3.4c1-.83,2.2-.55,3.32-.5.24,0,.5.4.68.66a7.77,7.77,0,0,1,.77,5.74c.37-.14.69-.3,1-.39a2.51,2.51,0,0,1,3.36,2.38,4.17,4.17,0,0,1-2.48,4.24,8,8,0,0,1-2.36.2A4.9,4.9,0,0,1,435.14,176.92Zm-3-4.32c.08-.76-.22-1.09-.9-1a2.77,2.77,0,0,0-2.38,2.09,2,2,0,0,0,.76,2,1.34,1.34,0,0,0,1.86-.09,6.26,6.26,0,0,0,1.34-1.33C433.5,173.35,433.27,172.83,432.15,172.6Z"/><path class="cls-1" d="M415.49,208.57c.19.68.39,1.28.54,1.9.5,2.08-.13,3.1-2.22,3.63a1,1,0,0,1-1.34-.59c-.21.19-.38.35-.56.5a1.52,1.52,0,0,1-2.65-.67,9.24,9.24,0,0,1-.31-2.24c0-.75,0-1.51,0-2.46-.3.4-.52.69-.73,1-.58.77-1.09,1.6-1.73,2.31a1.49,1.49,0,0,1-2.39.13c-.93-.85-2-1.71-1.92-3.15a4.18,4.18,0,0,1,2.23-3.55c.45-.27,1-.46,1.58-.76a6.84,6.84,0,0,1-4.16-2.86,1.74,1.74,0,0,1,.09-2.41,2.34,2.34,0,0,1,1.3-.52c.37,0,.52,0,.54-.43a2,2,0,0,1,2.05-2.09,1.58,1.58,0,0,1,1.48.74c.79,1.17,1.51,2.4,2.25,3.6l.45.7.22,0c0-.51,0-1,0-1.55a3.86,3.86,0,0,1,1.79-3.39c1-.83,2.19-.55,3.32-.51.23,0,.5.4.67.67a7.67,7.67,0,0,1,.77,5.74,10.51,10.51,0,0,1,1-.39,2.51,2.51,0,0,1,3.37,2.37,4.16,4.16,0,0,1-2.49,4.24,7.56,7.56,0,0,1-2.35.2A4.9,4.9,0,0,1,415.49,208.57Zm-3-4.32c.08-.75-.22-1.09-.89-1a2.79,2.79,0,0,0-2.39,2.09,2,2,0,0,0,.77,2,1.34,1.34,0,0,0,1.85-.1,6.26,6.26,0,0,0,1.35-1.32C413.85,205,413.62,204.48,412.49,204.25Z"/><path class="cls-1" d="M428.43,285c.19.68.39,1.29.54,1.9.5,2.08-.13,3.1-2.22,3.63a1,1,0,0,1-1.34-.58l-.56.5a1.53,1.53,0,0,1-2.65-.68,9.24,9.24,0,0,1-.31-2.24c-.05-.75,0-1.51,0-2.46l-.74,1c-.57.77-1.08,1.6-1.72,2.31a1.49,1.49,0,0,1-2.39.14c-.93-.85-2-1.72-1.92-3.16a4.18,4.18,0,0,1,2.23-3.55,17.16,17.16,0,0,1,1.58-.75,6.92,6.92,0,0,1-4.16-2.86,1.74,1.74,0,0,1,.09-2.41,2.2,2.2,0,0,1,1.3-.52c.37,0,.52-.05.53-.44a2,2,0,0,1,2.06-2.09,1.59,1.59,0,0,1,1.48.75c.79,1.17,1.51,2.39,2.25,3.6l.45.69.22,0c0-.52,0-1,0-1.56a3.88,3.88,0,0,1,1.79-3.39c1-.83,2.19-.55,3.32-.51.23,0,.5.4.67.67a7.67,7.67,0,0,1,.77,5.74c.38-.14.7-.3,1-.39a2.51,2.51,0,0,1,3.37,2.38,4.16,4.16,0,0,1-2.49,4.23,7.27,7.27,0,0,1-2.35.2A3.42,3.42,0,0,1,428.43,285Zm-3-4.32c.08-.75-.22-1.08-.89-1a2.81,2.81,0,0,0-2.39,2.1,2,2,0,0,0,.77,2,1.34,1.34,0,0,0,1.85-.1,6.26,6.26,0,0,0,1.35-1.32C426.79,281.4,426.56,280.88,425.43,280.64Z"/><path class="cls-1" d="M418.36,258.33c.2.68.39,1.29.54,1.9.51,2.08-.13,3.1-2.21,3.63a1,1,0,0,1-1.34-.58l-.57.5a1.52,1.52,0,0,1-2.64-.68,8.77,8.77,0,0,1-.31-2.24c-.05-.75,0-1.51,0-2.46l-.74,1c-.57.77-1.09,1.6-1.73,2.31a1.48,1.48,0,0,1-2.38.14c-.94-.85-2-1.72-1.92-3.16a4.16,4.16,0,0,1,2.23-3.55,17.16,17.16,0,0,1,1.58-.75,6.89,6.89,0,0,1-4.16-2.86,1.74,1.74,0,0,1,.09-2.42,2.26,2.26,0,0,1,1.3-.51c.37,0,.52-.05.53-.44a2,2,0,0,1,2.06-2.09,1.61,1.61,0,0,1,1.48.74c.79,1.18,1.51,2.4,2.25,3.61l.45.69.22,0c0-.52,0-1,0-1.56a3.88,3.88,0,0,1,1.79-3.39c1-.83,2.19-.55,3.32-.51.23,0,.5.4.67.67a7.67,7.67,0,0,1,.77,5.74c.38-.14.69-.3,1-.39A2.52,2.52,0,0,1,424,254a4.16,4.16,0,0,1-2.49,4.23,7.3,7.3,0,0,1-2.36.2A3.56,3.56,0,0,1,418.36,258.33Zm-3-4.32c.08-.75-.22-1.09-.89-1a2.79,2.79,0,0,0-2.39,2.09,2,2,0,0,0,.76,2,1.35,1.35,0,0,0,1.86-.1,6.26,6.26,0,0,0,1.35-1.32C416.73,254.77,416.5,254.25,415.37,254Z"/><path class="cls-1" d="M460.33,205.34c.2.68.39,1.28.54,1.89.51,2.08-.13,3.11-2.21,3.64a1,1,0,0,1-1.34-.59l-.57.5a1.52,1.52,0,0,1-2.64-.68,8.71,8.71,0,0,1-.31-2.24c-.05-.75,0-1.5,0-2.46l-.74,1c-.57.78-1.09,1.6-1.73,2.32a1.48,1.48,0,0,1-2.38.13c-.94-.85-2-1.72-1.92-3.16a4.17,4.17,0,0,1,2.23-3.55c.45-.27.95-.46,1.57-.75a6.82,6.82,0,0,1-4.15-2.86,1.73,1.73,0,0,1,.09-2.41,2.34,2.34,0,0,1,1.3-.52c.37,0,.52,0,.53-.44a2,2,0,0,1,2.06-2.09,1.6,1.6,0,0,1,1.48.75c.79,1.17,1.5,2.4,2.25,3.6l.45.7.22,0c0-.52,0-1,0-1.55a3.89,3.89,0,0,1,1.79-3.4c1-.83,2.19-.55,3.32-.5.23,0,.5.4.67.66a7.72,7.72,0,0,1,.77,5.74c.37-.14.69-.3,1-.39A2.52,2.52,0,0,1,466,201a4.19,4.19,0,0,1-2.49,4.24,8,8,0,0,1-2.36.2A5.2,5.2,0,0,1,460.33,205.34Zm-3-4.32c.08-.76-.22-1.09-.9-1a2.77,2.77,0,0,0-2.38,2.09,2,2,0,0,0,.76,2,1.34,1.34,0,0,0,1.86-.09,6.55,6.55,0,0,0,1.35-1.33C458.7,201.77,458.47,201.25,457.34,201Z"/><path class="cls-1" d="M450.45,301.42c.19.68.38,1.28.53,1.89.51,2.08-.12,3.11-2.21,3.64a1,1,0,0,1-1.34-.59l-.56.5a1.53,1.53,0,0,1-2.65-.67,9.32,9.32,0,0,1-.31-2.25c-.05-.75,0-1.5,0-2.46l-.74,1c-.57.78-1.09,1.6-1.72,2.32a1.49,1.49,0,0,1-2.39.13c-.93-.85-2-1.72-1.92-3.16a4.19,4.19,0,0,1,2.23-3.55c.45-.26.95-.46,1.58-.75a6.81,6.81,0,0,1-4.16-2.86,1.73,1.73,0,0,1,.09-2.41,2.34,2.34,0,0,1,1.3-.52c.37,0,.52,0,.53-.44a2,2,0,0,1,2.06-2.09,1.59,1.59,0,0,1,1.48.75c.79,1.17,1.51,2.4,2.25,3.6l.45.7.22,0c0-.52,0-1,0-1.55a3.86,3.86,0,0,1,1.79-3.39c1-.84,2.19-.55,3.32-.51.23,0,.5.4.67.66a7.69,7.69,0,0,1,.77,5.75,9.81,9.81,0,0,1,1-.4,2.52,2.52,0,0,1,3.37,2.38,4.18,4.18,0,0,1-2.49,4.24,7.87,7.87,0,0,1-2.35.2A4.9,4.9,0,0,1,450.45,301.42Zm-3-4.32c.08-.76-.22-1.09-.89-1a2.78,2.78,0,0,0-2.39,2.09,2,2,0,0,0,.76,2,1.34,1.34,0,0,0,1.86-.09,6.31,6.31,0,0,0,1.35-1.33C448.81,297.85,448.58,297.33,447.45,297.1Z"/><path class="cls-1" d="M458.23,265.34c.2.67.39,1.28.54,1.89.51,2.08-.13,3.1-2.21,3.64a1,1,0,0,1-1.35-.59l-.56.5a1.52,1.52,0,0,1-2.64-.68,8.77,8.77,0,0,1-.31-2.24c-.05-.75,0-1.5,0-2.46l-.74,1c-.57.77-1.09,1.6-1.73,2.31a1.48,1.48,0,0,1-2.38.14c-.94-.85-2-1.72-1.92-3.16a4.18,4.18,0,0,1,2.22-3.55c.46-.27,1-.46,1.58-.75a6.88,6.88,0,0,1-4.16-2.86,1.73,1.73,0,0,1,.1-2.41,2.31,2.31,0,0,1,1.3-.52c.36,0,.51-.05.53-.44a2,2,0,0,1,2.05-2.09,1.59,1.59,0,0,1,1.48.75c.8,1.17,1.51,2.39,2.26,3.6.14.23.3.46.44.7l.22,0c0-.52,0-1,0-1.55a3.9,3.9,0,0,1,1.78-3.4c1-.83,2.2-.55,3.33-.51.23,0,.5.41.67.67a7.72,7.72,0,0,1,.77,5.74c.37-.14.69-.3,1-.39a2.52,2.52,0,0,1,3.37,2.38,4.17,4.17,0,0,1-2.49,4.23,7.65,7.65,0,0,1-2.36.21A4.9,4.9,0,0,1,458.23,265.34Zm-3-4.33c.08-.75-.22-1.08-.9-1a2.8,2.8,0,0,0-2.38,2.1,2,2,0,0,0,.76,2,1.35,1.35,0,0,0,1.86-.09,6.81,6.81,0,0,0,1.35-1.33C456.6,261.77,456.37,261.25,455.24,261Z"/><path class="cls-1" d="M357.58,310.39c.19.68.39,1.28.54,1.89.5,2.08-.13,3.11-2.22,3.64a1,1,0,0,1-1.34-.59l-.56.5a1.53,1.53,0,0,1-2.65-.67,9.32,9.32,0,0,1-.31-2.25c0-.75,0-1.5,0-2.46l-.73,1c-.58.78-1.09,1.6-1.73,2.32a1.49,1.49,0,0,1-2.39.13c-.93-.85-2-1.72-1.92-3.16a4.19,4.19,0,0,1,2.23-3.55c.45-.26.95-.46,1.58-.75a6.84,6.84,0,0,1-4.16-2.86,1.74,1.74,0,0,1,.09-2.41,2.34,2.34,0,0,1,1.3-.52c.37,0,.52,0,.54-.44a2,2,0,0,1,2.05-2.09,1.59,1.59,0,0,1,1.48.75c.79,1.17,1.51,2.4,2.25,3.6l.45.7.22,0c0-.52,0-1,0-1.55a3.86,3.86,0,0,1,1.79-3.39c1-.84,2.19-.55,3.32-.51.23,0,.5.4.67.66a7.69,7.69,0,0,1,.77,5.75,10.74,10.74,0,0,1,1-.4,2.52,2.52,0,0,1,3.37,2.38,4.18,4.18,0,0,1-2.49,4.24,7.87,7.87,0,0,1-2.35.2A4.9,4.9,0,0,1,357.58,310.39Zm-3-4.32c.08-.76-.22-1.09-.89-1a2.79,2.79,0,0,0-2.39,2.09,2,2,0,0,0,.77,2,1.32,1.32,0,0,0,1.85-.09,6.31,6.31,0,0,0,1.35-1.33C355.94,306.82,355.71,306.3,354.58,306.07Z"/><path class="cls-1" d="M347.69,219.73c.19.68.39,1.28.54,1.89.51,2.08-.13,3.11-2.21,3.64a1,1,0,0,1-1.35-.59c-.2.18-.38.35-.56.5a1.53,1.53,0,0,1-2.65-.67,9.32,9.32,0,0,1-.3-2.25c-.05-.74,0-1.5,0-2.45-.31.4-.53.69-.74,1-.57.78-1.09,1.6-1.73,2.32a1.48,1.48,0,0,1-2.38.13c-.94-.85-2-1.72-1.92-3.15a4.18,4.18,0,0,1,2.22-3.56c.46-.26.95-.45,1.58-.75a6.84,6.84,0,0,1-4.16-2.86,1.73,1.73,0,0,1,.1-2.41,2.31,2.31,0,0,1,1.3-.52c.36,0,.51,0,.53-.43a2,2,0,0,1,2.05-2.1,1.61,1.61,0,0,1,1.48.75c.8,1.17,1.51,2.4,2.26,3.6l.44.7.22,0c0-.52,0-1,0-1.55a3.83,3.83,0,0,1,1.78-3.39c1-.84,2.19-.55,3.32-.51.24,0,.5.4.67.67a7.72,7.72,0,0,1,.78,5.74c.37-.15.69-.3,1-.4a2.52,2.52,0,0,1,3.37,2.38,4.17,4.17,0,0,1-2.49,4.24,7.87,7.87,0,0,1-2.35.2A4.9,4.9,0,0,1,347.69,219.73Zm-3-4.32c.08-.76-.23-1.09-.9-1a2.79,2.79,0,0,0-2.39,2.09,2,2,0,0,0,.77,2,1.34,1.34,0,0,0,1.86-.09,6.26,6.26,0,0,0,1.34-1.33C346.05,216.16,345.82,215.64,344.7,215.41Z"/><path class="cls-1" d="M347.69,266.2c.19.68.39,1.28.54,1.9.51,2.08-.13,3.1-2.21,3.63a1,1,0,0,1-1.35-.58l-.56.49a1.52,1.52,0,0,1-2.65-.67,9.23,9.23,0,0,1-.3-2.24c-.05-.75,0-1.51,0-2.46-.31.4-.53.69-.74,1-.57.77-1.09,1.6-1.73,2.31a1.48,1.48,0,0,1-2.38.14c-.94-.86-2-1.72-1.92-3.16A4.15,4.15,0,0,1,336.6,263c.46-.27.95-.46,1.58-.75a6.92,6.92,0,0,1-4.16-2.86,1.74,1.74,0,0,1,.1-2.42,2.23,2.23,0,0,1,1.3-.51c.36,0,.51,0,.53-.44a2,2,0,0,1,2.05-2.09,1.6,1.6,0,0,1,1.48.74c.8,1.17,1.51,2.4,2.26,3.6.14.24.29.47.44.7l.22,0c0-.52,0-1,0-1.56a3.85,3.85,0,0,1,1.78-3.39c1-.83,2.19-.55,3.32-.51.24,0,.5.4.67.67a7.72,7.72,0,0,1,.78,5.74c.37-.14.69-.3,1-.39a2.51,2.51,0,0,1,3.37,2.38,4.16,4.16,0,0,1-2.49,4.23,7.27,7.27,0,0,1-2.35.2A4,4,0,0,1,347.69,266.2Zm-3-4.32c.08-.75-.23-1.09-.9-1a2.81,2.81,0,0,0-2.39,2.09,2,2,0,0,0,.77,2,1.35,1.35,0,0,0,1.86-.1,6.45,6.45,0,0,0,1.34-1.32C346.05,262.64,345.82,262.12,344.7,261.88Z"/><path class="cls-10" d="M359.73,532.91a20.21,20.21,0,0,0-1,6.26h40.74a20.51,20.51,0,0,0-1-6.26Z"/><path class="cls-10" d="M401.61,532.39a20.3,20.3,0,0,0-1,6.26h40.74a20.61,20.61,0,0,0-1-6.26Z"/><path class="cls-11" d="M428,105.28c-.23-5.12-1.1-9.72-3.62-13.59s-6.68-7-11.18-9.16a27.47,27.47,0,0,0-26.33,0c-4.49,2.16-8.66,5.29-11.17,9.16s-3.39,8.47-3.63,13.59.16,10.73.16,16.64.51-8.41,1.92-17S379.09,89.8,382.65,89a37.39,37.39,0,0,1,7.24-4.67c3-1.6,6.32,1.06,10.16,1.06s7.14-2.66,10.16-1.06A37.7,37.7,0,0,1,417.45,89c3.56.8,7.09,7.36,8.49,15.94s1.92,22.88,1.92,17S428.25,110.39,428,105.28Z"/></svg>