<svg id="Layer_1" data-name="Layer 1" xmlns="http://www.w3.org/2000/svg" viewBox="0 0 800 600"><defs><style>.cls-1{fill:#fff;}.cls-2{fill:#eee;}.cls-11,.cls-3{fill:#282d3c;}.cls-4{fill:none;stroke:#e0d0be;}.cls-10,.cls-11,.cls-4{stroke-miterlimit:10;}.cls-5{fill:#798ea4;}.cls-6{fill:#bebebe;}.cls-7{fill:#f9e8d4;}.cls-8,.cls-9{fill:#584f49;}.cls-9{opacity:0.6;}.cls-10{fill:#e8a798;stroke:#e8a798;}.cls-11{stroke:#fff;}</style></defs><title>goodam</title><rect class="cls-1" width="800" height="600"/><path class="cls-2" d="M434,112.62c0,28.35-13.78,83.62-33.35,83.62S366,141,366,112.62s13.5-4.24,33.06-4.24S434,84.27,434,112.62Z"/><polygon class="cls-2" points="404.29 176.33 412.56 167.52 417.84 172.48 406.27 184.81 404.29 176.33"/><polygon class="cls-2" points="396.1 176.33 387.84 167.52 382.55 172.48 394.13 184.81 396.1 176.33"/><polygon class="cls-3" points="429.83 322.15 369.45 322.15 368.24 298 428.62 298 429.83 322.15"/><line class="cls-4" x1="389.49" y1="106.9" x2="408.67" y2="106.9"/><line class="cls-4" x1="391.98" y1="111.07" x2="406.47" y2="111.07"/><polygon class="cls-5" points="394.52 523.13 366.84 523.13 369.25 298.36 393.31 298.36 394.52 523.13"/><polygon class="cls-5" points="433.16 523.13 405.48 523.13 405.48 298.36 429.54 298.36 433.16 523.13"/><path class="cls-6" d="M394.05,212.8l-3.67-2,.12,2a5.76,5.76,0,0,0-7.56,6.51,6.78,6.78,0,0,1,.32,2.08c-.07.7-.64,1.42-1.34,1.32.72,2.59,5.51,1.22,6.77,3.59,1.05,2-1.53,4.39-.78,6.51a3.24,3.24,0,0,0,1.39,1.58,4.93,4.93,0,0,0,4.9.36,3.55,3.55,0,0,0,1.65-4.39,18.49,18.49,0,0,1-1.09-1.94c-.43-1.4.56-2.83,1.69-3.77s2.46-1.71,3.14-3a5.11,5.11,0,0,0-.89-5.4A15.13,15.13,0,0,0,394.05,212.8Z"/><path class="cls-6" d="M417.45,218l-4-2.27c1.63,2,0,5,.1,7.54l4,4.84A7.67,7.67,0,0,0,417.45,218Z"/><path class="cls-6" d="M400.54,232c.16-.32.33-.62.51-.92A1,1,0,0,0,400.54,232Z"/><path class="cls-6" d="M408.78,213.94c1.64-.82,2.62-3.35,4.54-3.9a26,26,0,0,0-5.56-4.86l-.09-1a8.22,8.22,0,0,0-1.09.26l-.74-.44.19.64a9.56,9.56,0,0,0-5,4.37,27.38,27.38,0,0,0,4.48,4.19,4.11,4.11,0,0,0,2.14,1,2.3,2.3,0,0,0,1-.19l-.08-.89Z"/><path class="cls-6" d="M412.58,226.76l1.62,5.45c1.51-1.18,3.19-3.07,2.26-4.75-.47-.87-1.51-1.28-2.14-2.05a3.36,3.36,0,0,1-.73-2.16l-2.09-2.53A34.46,34.46,0,0,1,412.58,226.76Z"/><path class="cls-6" d="M408.62,214l.15,1.48a4.09,4.09,0,0,0-3.23,7c.86.83,2.23,1.79,1.67,2.85a2.23,2.23,0,0,1-1,.82,13.61,13.61,0,0,0-5.13,4.86,1.46,1.46,0,0,1,.8-.26,3.76,3.76,0,0,1,1.83.68l5.51,3.29a2.65,2.65,0,0,0,2.18.55c.9-.33,1.15-1.46,1.23-2.42a35.62,35.62,0,0,0,0-6.11l-3.8-12.82Z"/><rect class="cls-7" x="342.11" y="318.83" width="16.35" height="27.11" rx="4"/><path class="cls-2" d="M358.25,291.93V188a6.82,6.82,0,0,0-6.86-6.73h-2.7a6.81,6.81,0,0,0-6.86,6.73V315.4a6.53,6.53,0,0,0,.48,2.42v4.31h16.42v-30.2Z"/><ellipse class="cls-2" cx="400" cy="172.67" rx="24.93" ry="9.73"/><rect class="cls-7" x="441.55" y="318.83" width="16.35" height="27.11" rx="4"/><path class="cls-2" d="M457.69,291.93V188a6.81,6.81,0,0,0-6.86-6.73h-2.7a6.81,6.81,0,0,0-6.86,6.73V315.4a6.53,6.53,0,0,0,.48,2.42v4.31h16.42v-30.2Z"/><rect class="cls-2" x="362.58" y="246.8" width="75" height="83.82"/><polygon class="cls-7" points="420.1 172.4 399.59 191.72 380.54 172.4 389.33 172.4 389.33 163.94 400.32 163.94 411.31 163.94 411.31 172.4 420.1 172.4"/><path class="cls-7" d="M427.23,126c0,11.56-3.05,22-8,29.6S407.52,167.85,400,167.85s-14.33-4.69-19.25-12.26-8-18-8-29.6-1.53-22,3.4-29.59S392.48,84.14,400,84.14s18.91,4.69,23.83,12.26S427.23,114.44,427.23,126Z"/><path class="cls-7" d="M431.19,132.59a11.09,11.09,0,0,1-2.71,7.37,8.54,8.54,0,0,1-13.08,0,11.41,11.41,0,0,1,0-14.74,8.77,8.77,0,0,1,6.54-3c2.55,0,7.92,1.17,9.59,3S431.19,129.72,431.19,132.59Z"/><path class="cls-7" d="M368.81,132.59a11.09,11.09,0,0,0,2.71,7.37,8.54,8.54,0,0,0,13.08,0,11.41,11.41,0,0,0,0-14.74,8.77,8.77,0,0,0-6.54-3c-2.55,0-7.92,1.17-9.59,3S368.81,129.72,368.81,132.59Z"/><path class="cls-8" d="M430.1,104.1a100.9,100.9,0,0,1-.05,10.39c-.36,3.83-1.4,7.45-4.11,9.09-4.92-9.64.25-17.59-4.55-21.93s-19.59-6.26-23.72-6.26-16.79,2.14-20,6.65,2.91,12.6-4.29,22.08c-2.71-1.65-3.47-5.4-3.56-9.36s.5-8.15.5-10.66A12.35,12.35,0,0,1,372.63,97,21,21,0,0,1,379,91.24a55.81,55.81,0,0,1,9.51-4.73,31.11,31.11,0,0,1,23.28,0,55.81,55.81,0,0,1,9.51,4.73A20.8,20.8,0,0,1,427.75,97,12.35,12.35,0,0,1,430.1,104.1Z"/><circle class="cls-5" cx="389.02" cy="129.61" r="2.82"/><circle class="cls-5" cx="410.98" cy="129.61" r="2.82"/><path class="cls-9" d="M384.71,123.42a4.74,4.74,0,0,1,.89-1.28,4.82,4.82,0,0,1,6.83,0,5,5,0,0,1,.9,1.28h1.32a6,6,0,0,0-5.63-3.9,6,6,0,0,0-4.27,1.77,5.8,5.8,0,0,0-1.36,2.13Z"/><path class="cls-9" d="M406.67,123.42a5,5,0,0,1,.9-1.28,4.82,4.82,0,0,1,6.83,0,4.74,4.74,0,0,1,.89,1.28h1.32a5.8,5.8,0,0,0-1.36-2.13,6,6,0,0,0-8.54,0,6.07,6.07,0,0,0-1.36,2.13Z"/><rect class="cls-10" x="393.96" y="147.35" width="12.08" height="2.78" rx="1.15"/><path class="cls-9" d="M410.34,159.09c-5.64,6.15-3.55-4.16-9.72-5.37v-.12a6.42,6.42,0,0,1-1.24,0v.12c-6.17,1.21-4.08,11.52-9.72,5.37-14.7-7.26-17-46.64-17-34.81s3.12,22.55,8.17,30.31c4.82,7.42,11.41,12.12,18.71,12.51v0l.5,0,.5,0v0c7.3-.39,13.89-5.09,18.71-12.51,5.05-7.76,8.17-18.47,8.17-30.31S425,151.83,410.34,159.09Z"/><path class="cls-2" d="M434,111.41c0-4.23-3.8-25-10-27.75s-14.65-4.49-24-4.49-17.88,1.72-24,4.49-10,23.52-10,27.75"/><polygon class="cls-2" points="399.08 307.66 416.38 330.62 429.28 298 437.58 251.38 437.58 178.18 416.38 172.14 416.38 172.14 399.08 191.72 399.08 307.66"/><polygon class="cls-2" points="399.08 307.66 383.77 330.62 368.89 298 362.58 251.38 362.58 178.18 383.77 172.14 383.77 172.14 399.08 191.72 399.08 307.66"/><path class="cls-5" d="M386,175.4c-4.23,3.4-7.4,9.75-5.14,15.12,1.29,3.07,4.51,4.31,6.21,7a9.31,9.31,0,0,1,.19,9.38c-1.24,2.12-4.75,5.63-2,8,.74.62,1.8-.44,1.06-1.06-1.59-1.35.68-3.93,1.54-5.13a10.5,10.5,0,0,0,1.93-4.62,10.63,10.63,0,0,0-2.9-9.11c-1.41-1.4-3.19-2.43-4.23-4.18a8.06,8.06,0,0,1-1-4.9,14.18,14.18,0,0,1,5.39-9.44c.75-.6-.32-1.66-1.06-1.06Z"/><path class="cls-5" d="M409.84,177c-1,6.23,4.88,10.27,6.67,15.69,2.78,8.43-10.95,8.66-10.51,16.45a8,8,0,0,0,2,4.38c1.08,1.39,2.74,3,2.43,4.94-.15.95,1.29,1.35,1.45.4.53-3.27-2.3-5.22-3.76-7.78-2.47-4.3,2.65-7.15,5.62-9.17,2.64-1.79,4.89-4.25,4.59-7.65-.25-2.8-1.94-5.25-3.45-7.52-1.8-2.72-4.17-5.88-3.63-9.34.14-1-1.3-1.35-1.45-.4Z"/><path class="cls-11" d="M401.61,536.1a19.95,19.95,0,0,1,39.89,0"/><path class="cls-11" d="M400.49,536.1a19.94,19.94,0,1,0-39.88,0"/><path class="cls-2" d="M361.58,533a19.72,19.72,0,0,0-1,6.13h39.88a19.72,19.72,0,0,0-1-6.13Z"/><path class="cls-2" d="M402.58,532.53a20.07,20.07,0,0,0-1,6.13H441.5a20.07,20.07,0,0,0-1-6.13Z"/></svg>