<svg id="Layer_1" data-name="Layer 1" xmlns="http://www.w3.org/2000/svg" viewBox="0 0 220 60"><defs><style>.cls-1{fill:#fff;}</style></defs><title>logo</title><rect class="cls-1" width="220" height="60"/><path d="M18.86,18.21h4.72l4.16,11.51c.52,1.5,1,3.08,1.51,4.62h.14c.52-1.54,1-3.12,1.49-4.62L35,18.21h4.73V41.76H35.85V31c0-2.18.33-5.31.53-7.49h-.15L34.33,29,30.46,39.55H28L24.1,29,22.23,23.5h-.15c.2,2.18.53,5.31.53,7.49V41.76H18.86Z"/><path d="M50.28,18.21h4.9l7.67,23.55H58.43L54.85,29.23c-.75-2.49-1.44-5.18-2.13-7.76h-.15c-.64,2.6-1.34,5.27-2.09,7.76L46.87,41.76H42.61ZM47.14,32.1H58.23v3.28H47.14Z"/><path d="M64.17,30.06c0-7.7,4.82-12.28,10.78-12.28a9.35,9.35,0,0,1,6.78,3l-2.23,2.7A6.15,6.15,0,0,0,75,21.41c-3.83,0-6.58,3.24-6.58,8.53s2.53,8.62,6.47,8.62a6.64,6.64,0,0,0,5-2.42l2.23,2.62a9.38,9.38,0,0,1-7.41,3.43C68.86,42.19,64.17,37.85,64.17,30.06Z"/><path d="M93.34,18.21h4.72l4.16,11.51c.52,1.5,1,3.08,1.51,4.62h.15c.52-1.54,1-3.12,1.48-4.62l4.08-11.51h4.72V41.76h-3.83V31c0-2.18.33-5.31.53-7.49h-.14L108.82,29l-3.88,10.58h-2.47L98.58,29,96.71,23.5h-.15c.21,2.18.54,5.31.54,7.49V41.76H93.34Z"/><path d="M120.16,18.21h4.17V41.76h-4.17Z"/><path d="M130.31,18.21h4.18v20h9.77v3.52H130.31Z"/><path d="M148.38,18.21h4.18v20h9.77v3.52h-14Z"/><path d="M166.46,18.21h14.16v3.52h-10v6h8.47v3.51h-8.47v7H181v3.52H166.46Z"/><path d="M185.82,18.21h7.94c4.89,0,8.66,1.73,8.66,7,0,5.06-3.77,7.36-8.66,7.36H190v9.2h-4.18Zm7.5,11c3.23,0,5-1.33,5-4s-1.76-3.64-5-3.64H190v7.65ZM193,31.44,196,29l7.36,12.81h-4.7Z"/></svg>