<svg id="Layer_1" data-name="Layer 1" xmlns="http://www.w3.org/2000/svg" xmlns:xlink="http://www.w3.org/1999/xlink" viewBox="0 0 1200 600"><defs><style>.cls-1,.cls-10,.cls-16,.cls-17,.cls-18,.cls-19,.cls-20{fill:none;}.cls-2{fill:#00758f;}.cls-3{fill:#b89b72;}.cls-4{fill:#feffff;}.cls-5{fill:#798ea4;}.cls-26,.cls-6{fill:#f9e8d4;}.cls-7{fill:#eee;}.cls-13,.cls-23,.cls-33,.cls-8{fill:#282d3c;}.cls-11,.cls-9{fill:#584f49;}.cls-10{stroke:#e0d0be;}.cls-10,.cls-12,.cls-13,.cls-16,.cls-17,.cls-18,.cls-19,.cls-20,.cls-22,.cls-26,.cls-29,.cls-30,.cls-33{stroke-miterlimit:10;}.cls-11{opacity:0.6;}.cls-12,.cls-25{fill:#e8a798;}.cls-12{stroke:#e8a798;}.cls-13,.cls-22,.cls-26{stroke:#fff;}.cls-14,.cls-29{fill:#fff;}.cls-15,.cls-22{fill:#cd212a;}.cls-16,.cls-17,.cls-18,.cls-19,.cls-20{stroke:#b89b72;stroke-width:2px;}.cls-17{stroke-dasharray:0.98 0.98 0.98 0;}.cls-18{stroke-dasharray:0.98 0.98 0.98 0.98 0.98 0;}.cls-19{stroke-dasharray:0.98 0.98 0.98 0;}.cls-20{stroke-dasharray:0.98 0.98 0.98 0.98 0.98 0;}.cls-21{fill:#bebebe;}.cls-23,.cls-33{opacity:0.7;}.cls-24{fill:#9b4722;}.cls-27{fill:url(#New_Pattern_Swatch_5);}.cls-28{fill:url(#New_Pattern_Swatch_5-3);}.cls-29{stroke:#e6e7e8;}.cls-29,.cls-30{stroke-width:0.25px;}.cls-30,.cls-31{fill:orange;}.cls-30,.cls-33{stroke:#a09998;}.cls-32{fill:#a09998;}</style><pattern id="New_Pattern_Swatch_5" data-name="New Pattern Swatch 5" width="50" height="50" patternTransform="translate(-132.94 36.62) rotate(-46.59)" patternUnits="userSpaceOnUse" viewBox="0 0 50 50"><rect class="cls-1" width="50" height="50"/><rect class="cls-2" width="50" height="5.02"/><rect class="cls-3" y="11.13" width="50" height="2.51"/><rect class="cls-4" y="5.16" width="50" height="2.51"/><rect class="cls-5" y="7.4" width="50" height="3.76"/><rect class="cls-3" y="14.67" width="50" height="2.51"/><rect class="cls-5" y="17.26" width="50" height="3.76"/><rect class="cls-5" y="13.53" width="50" height="1.25"/><rect class="cls-2" y="21.02" width="50" height="5.02"/><rect class="cls-4" y="26.18" width="50" height="2.51"/><rect class="cls-3" y="32.45" width="50" height="2.51"/><rect class="cls-4" y="26.47" width="50" height="2.51"/><rect class="cls-5" y="28.71" width="50" height="3.76"/><rect class="cls-3" y="35.98" width="50" height="2.51"/><rect class="cls-5" y="38.57" width="50" height="3.76"/><rect class="cls-5" y="34.84" width="50" height="1.25"/><rect class="cls-2" y="42.33" width="50" height="5.02"/><rect class="cls-4" y="47.49" width="50" height="2.51"/></pattern><pattern id="New_Pattern_Swatch_5-3" data-name="New Pattern Swatch 5" width="50" height="50" patternTransform="matrix(0.7, -0.34, 0.26, 0.94, 2.14, 28.13)" patternUnits="userSpaceOnUse" viewBox="0 0 50 50"><rect class="cls-1" width="50" height="50"/><rect class="cls-2" width="50" height="5.02"/><rect class="cls-3" y="11.13" width="50" height="2.51"/><rect class="cls-4" y="5.16" width="50" height="2.51"/><rect class="cls-5" y="7.4" width="50" height="3.76"/><rect class="cls-3" y="14.67" width="50" height="2.51"/><rect class="cls-5" y="17.26" width="50" height="3.76"/><rect class="cls-5" y="13.53" width="50" height="1.25"/><rect class="cls-2" y="21.02" width="50" height="5.02"/><rect class="cls-4" y="26.18" width="50" height="2.51"/><rect class="cls-3" y="32.45" width="50" height="2.51"/><rect class="cls-4" y="26.47" width="50" height="2.51"/><rect class="cls-5" y="28.71" width="50" height="3.76"/><rect class="cls-3" y="35.98" width="50" height="2.51"/><rect class="cls-5" y="38.57" width="50" height="3.76"/><rect class="cls-5" y="34.84" width="50" height="1.25"/><rect class="cls-2" y="42.33" width="50" height="5.02"/><rect class="cls-4" y="47.49" width="50" height="2.51"/></pattern></defs><title>macmiller</title><polygon class="cls-6" points="105.07 189.28 91.07 205.28 78.07 189.28 84.07 189.28 84.07 182.28 91.57 182.28 99.07 182.28 99.07 189.28 105.07 189.28"/><rect class="cls-6" x="43.93" y="310.53" width="13.54" height="22.45" rx="4"/><rect class="cls-6" x="126.27" y="310.53" width="13.54" height="22.45" rx="4"/><path class="cls-7" d="M139.64,288.27v-86.1A5.65,5.65,0,0,0,134,196.6h-2.24a5.64,5.64,0,0,0-5.68,5.57V307.7a5.36,5.36,0,0,0,.4,2v3.57H140v-25Z"/><path class="cls-7" d="M57.3,288.27v-86.1a5.65,5.65,0,0,0-5.68-5.57H49.38a5.64,5.64,0,0,0-5.68,5.57V307.7a5.56,5.56,0,0,0,.39,2v3.57H57.7v-25Z"/><polygon class="cls-7" points="91.11 301.29 105.43 320.3 116.11 293.29 122.98 254.69 122.98 194.07 105.43 189.07 105.43 189.07 91.11 205.28 91.11 301.29"/><polygon class="cls-7" points="91.11 301.29 78.43 320.3 66.11 293.29 60.88 254.69 60.88 194.07 78.43 189.07 78.43 189.07 91.11 205.28 91.11 301.29"/><polygon class="cls-8" points="118.75 479.71 95.83 479.71 95.83 293.59 115.75 293.59 118.75 479.71"/><polygon class="cls-7" points="94.96 192.54 101.81 185.25 106.18 189.35 96.6 199.56 94.96 192.54"/><polygon class="cls-7" points="88.18 192.54 81.34 185.25 76.96 189.35 86.54 199.56 88.18 192.54"/><polygon class="cls-8" points="86.49 479.71 63.57 479.71 65.57 293.59 85.49 293.59 86.49 479.71"/><polygon class="cls-8" points="115.85 313.29 65.85 313.29 64.85 293.29 114.85 293.29 115.85 313.29"/><rect class="cls-8" x="82.65" y="186.67" width="4.21" height="27.64" transform="translate(-101.61 88.02) rotate(-35.97)"/><rect class="cls-8" x="96.97" y="186.67" width="4.21" height="27.64" transform="translate(61.48 420.95) rotate(-144.03)"/><polygon class="cls-8" points="95.73 215.43 88.56 215.43 85.14 205.69 99.14 205.69 95.73 215.43"/><polygon class="cls-8" points="98.14 244.48 92.14 250.89 86.14 244.48 87.75 229.05 88.55 213.62 92.14 213.62 96.54 213.62 96.54 229.05 98.14 244.48"/><path class="cls-6" d="M113.69,152.44c0,9.57-2.52,18.24-6.6,24.51S97.37,187.1,91.15,187.1s-11.87-3.88-16-10.15S68.6,162,68.6,152.44s-1.27-18.23,2.81-24.5,13.51-10.15,19.74-10.15,15.65,3.88,19.73,10.15S113.69,142.87,113.69,152.44Z"/><path class="cls-6" d="M117,157.91a9.21,9.21,0,0,1-2.24,6.1,7.06,7.06,0,0,1-10.83,0,9.43,9.43,0,0,1,0-12.2,7.24,7.24,0,0,1,5.41-2.53c2.12,0,6.56,1,8,2.53S117,155.53,117,157.91Z"/><path class="cls-6" d="M65.32,157.91a9.21,9.21,0,0,0,2.24,6.1,7.06,7.06,0,0,0,10.83,0,9.43,9.43,0,0,0,0-12.2A7.24,7.24,0,0,0,73,149.28c-2.12,0-6.56,1-7.94,2.53S65.32,155.53,65.32,157.91Z"/><path class="cls-9" d="M116.07,134.32a82.89,82.89,0,0,1,0,8.6c-.3,3.17-1.16,6.17-3.4,7.53-4.08-8,.21-14.57-3.77-18.16s-16.23-5.19-19.65-5.19-13.9,1.77-16.59,5.51S75,143,69.07,150.89c-2.24-1.36-2.87-4.47-2.95-7.75s.42-6.74.42-8.82a10.23,10.23,0,0,1,1.94-5.87,17.62,17.62,0,0,1,5.31-4.79,46.54,46.54,0,0,1,7.87-3.91,25.78,25.78,0,0,1,19.28,0,46.29,46.29,0,0,1,7.88,3.91,17.46,17.46,0,0,1,5.3,4.79A10.17,10.17,0,0,1,116.07,134.32Z"/><line class="cls-10" x1="83.21" y1="136.63" x2="99.08" y2="136.63"/><line class="cls-10" x1="85.27" y1="140.08" x2="97.27" y2="140.08"/><circle class="cls-5" cx="82.05" cy="155.44" r="2.33"/><circle class="cls-5" cx="100.24" cy="155.44" r="2.33"/><path class="cls-11" d="M78.48,150.31a4.12,4.12,0,0,1,.74-1.06,4,4,0,0,1,5.66,0,4.12,4.12,0,0,1,.74,1.06h1.09a4.91,4.91,0,0,0-1.12-1.76,5,5,0,0,0-7.08,0,4.91,4.91,0,0,0-1.12,1.76Z"/><path class="cls-11" d="M96.67,150.31a4.12,4.12,0,0,1,.74-1.06,4,4,0,0,1,5.66,0,4.12,4.12,0,0,1,.74,1.06h1.09a4.91,4.91,0,0,0-1.12-1.76,5,5,0,0,0-7.08,0,4.91,4.91,0,0,0-1.12,1.76Z"/><rect class="cls-12" x="86.15" y="170.13" width="10" height="2.3" rx="1.15"/><path class="cls-11" d="M82.67,180.58c-12.06-6-14-38.25-14-28.54s2.56,18.49,6.7,24.85c4,6.08,9.36,9.94,15.34,10.26v0h.83v0c6-.32,11.39-4.18,15.34-10.26,4.14-6.36,6.7-15.15,6.7-24.85s-1.92,22.59-14,28.54"/><path class="cls-13" d="M91.61,490.45a16.52,16.52,0,0,1,33,0"/><path class="cls-13" d="M90.68,490.45a16.52,16.52,0,0,0-33,0"/><polygon class="cls-8" points="322.58 479.71 299.66 479.71 299.66 293.59 319.58 293.59 322.58 479.71"/><polygon class="cls-8" points="290.58 479.71 267.66 479.71 269.66 293.59 289.58 293.59 290.58 479.71"/><polygon class="cls-8" points="319.36 313.29 269.36 313.29 268.36 293.29 318.36 293.29 319.36 313.29"/><path class="cls-14" d="M299.38,218.53h-.48a.22.22,0,0,0-.07-.16.34.34,0,0,0-.25-.08.4.4,0,0,0-.25.06.17.17,0,0,0-.05.12c0,.07.1.13.3.17a3.27,3.27,0,0,1,.48.13l.07,0a.46.46,0,0,1,.3.43.56.56,0,0,1-.29.52l-.08,0a1,1,0,0,1-.43.09,1.27,1.27,0,0,1-.6-.13.53.53,0,0,1-.21-.21.61.61,0,0,1-.08-.3h.5a.24.24,0,0,0,.09.2.51.51,0,0,0,.31.07.37.37,0,0,0,.25-.07.14.14,0,0,0,.06-.12c0-.08-.1-.14-.29-.18a2.4,2.4,0,0,1-.55-.15.45.45,0,0,1-.3-.43.59.59,0,0,1,.15-.41.79.79,0,0,1,.59-.21,1.2,1.2,0,0,1,.51.09l0,0a.58.58,0,0,1,.21.2A.7.7,0,0,1,299.38,218.53Z"/><path class="cls-14" d="M299.12,217.37v0l0,0H299v.09h.12S299.12,217.39,299.12,217.37Zm0,0a.05.05,0,0,1,0,0,.09.09,0,0,1,0,.06l-.06,0h0l0,.06,0,.06h-.06l0-.05s0,0-.05-.06H299v.13h-.05v-.3h.18S299.15,217.31,299.16,217.33Z"/><path class="cls-14" d="M299.3,217.44a.24.24,0,0,0,0-.12.2.2,0,0,0-.09-.09.23.23,0,0,0-.11,0h0l-.11,0a.2.2,0,0,0-.09.09.24.24,0,0,0,0,.12.2.2,0,0,0,0,.11.2.2,0,0,0,.09.09.2.2,0,0,0,.11,0h0a.2.2,0,0,0,.11,0,.2.2,0,0,0,.09-.09A.2.2,0,0,0,299.3,217.44Zm.05,0a.27.27,0,0,1,0,.14.24.24,0,0,1-.1.1.25.25,0,0,1-.14,0h0a.27.27,0,0,1-.14,0,.24.24,0,0,1-.1-.1.27.27,0,0,1,0-.14.28.28,0,0,1,0-.15.27.27,0,0,1,.11-.1.22.22,0,0,1,.13,0h0a.27.27,0,0,1,.14,0,.24.24,0,0,1,.1.1A.28.28,0,0,1,299.35,217.44Z"/><polygon class="cls-14" points="296.57 215.13 297.91 217.36 296.57 217.36 295.76 217.36 294.48 215.23 293.51 213.62 294.48 213.03 295.09 212.66 296.57 215.13"/><path class="cls-14" d="M297.54,218.91v.92h-.44v-.1a.93.93,0,0,1-.52.15h0a1,1,0,0,1-1-1,1,1,0,0,1,1-1h0a.94.94,0,0,1,.52.16V218h.44Zm-.44.11v-.21a.54.54,0,0,0-.52-.43h0a.53.53,0,0,0-.53.53.54.54,0,0,0,.53.54h0A.54.54,0,0,0,297.1,219Z"/><path class="cls-14" d="M295.45,218.91v.92H295v-.1a1,1,0,0,1-.53.15h0a1,1,0,0,1-1-1,1,1,0,0,1,1-1h0a1,1,0,0,1,.53.16v-.74h.44ZM295,219v-.21a.55.55,0,0,0-.53-.43h0a.53.53,0,0,0-.53.53.54.54,0,0,0,.53.54h0A.55.55,0,0,0,295,219Z"/><polygon class="cls-14" points="294.48 216.49 295 217.36 294.48 217.36 292.85 217.36 291.66 215.38 291.61 215.29 291.66 215.26 293.19 214.34 294.48 216.49"/><rect class="cls-14" x="292.85" y="217.94" width="0.48" height="1.89"/><rect class="cls-14" x="292.85" y="217.37" width="0.48" height="0.43"/><path class="cls-14" d="M292.63,218.91v.92h-.44v-.1a1,1,0,0,1-.53.15h0a1,1,0,0,1-1-1,1,1,0,0,1,1-1h0a1,1,0,0,1,.53.16v-.74h.44Zm-.44.11v-.21a.55.55,0,0,0-.53-.43h0a.53.53,0,0,0-.53.53.54.54,0,0,0,.53.54h0A.55.55,0,0,0,292.19,219Z"/><polygon class="cls-14" points="291.66 216.63 292.1 217.36 291.66 217.36 289.94 217.36 289.7 216.96 291.29 216.01 291.66 216.63"/><path class="cls-14" d="M290.52,218.91v.92h-.45v-.1a.93.93,0,0,1-.52.15h0a1,1,0,0,1-1-1,1,1,0,0,1,1-1h0a.94.94,0,0,1,.52.16V218h.45Zm-.45.11v-.21a.54.54,0,0,0-.52-.43h0a.52.52,0,0,0-.52.53.53.53,0,0,0,.52.54h0A.54.54,0,0,0,290.07,219Z"/><ellipse class="cls-15" cx="293.86" cy="189.51" rx="20.64" ry="8.06"/><polygon class="cls-6" points="311.3 189.28 294.32 205.28 278.55 189.28 285.83 189.28 285.83 182.28 294.92 182.28 304.02 182.28 304.02 189.28 311.3 189.28"/><rect class="cls-6" x="247.18" y="310.53" width="13.54" height="22.45" rx="4"/><rect class="cls-6" x="329.52" y="310.53" width="13.54" height="22.45" rx="4"/><polygon class="cls-15" points="298.21 192.54 305.06 185.25 309.43 189.35 299.85 199.56 298.21 192.54"/><polygon class="cls-15" points="291.43 192.54 284.59 185.25 280.21 189.35 289.8 199.56 291.43 192.54"/><path class="cls-14" d="M319.55,197.64l.18,2.84.59-2.09a.68.68,0,0,1,.23-.35.61.61,0,0,1,.4-.11.58.58,0,0,1,.39.11.59.59,0,0,1,.22.35l.61,2.09.17-2.84h-.13a.57.57,0,0,1-.42-.13.52.52,0,0,1-.13-.4.53.53,0,0,1,.13-.41.66.66,0,0,1,.47-.13h1.17a.73.73,0,0,1,.47.13.7.7,0,0,1,0,.81.53.53,0,0,1-.39.13h-.08l-.47,4.27a.54.54,0,0,1-.09.33.5.5,0,0,1-.34.08h-.23a.49.49,0,0,1-.3-.08.87.87,0,0,1-.18-.39l-.89-2.87-.85,2.87a.87.87,0,0,1-.18.39.52.52,0,0,1-.31.08h-.23a.49.49,0,0,1-.33-.08.62.62,0,0,1-.09-.33l-.48-4.27h-.08a.53.53,0,0,1-.39-.13.54.54,0,0,1-.14-.4.53.53,0,0,1,.14-.41.73.73,0,0,1,.47-.13h1.17a.71.71,0,0,1,.47.13.53.53,0,0,1,.14.41.52.52,0,0,1-.14.4.57.57,0,0,1-.42.13Z"/><path class="cls-6" d="M317.67,150.86c0,9.57-2.53,18.23-6.61,24.51s-9.71,10.15-15.94,10.15-11.86-3.88-15.94-10.15-6.61-14.94-6.61-24.51-1.27-18.23,2.81-24.51,13.51-10.15,19.74-10.15,15.66,3.88,19.74,10.15S317.67,141.29,317.67,150.86Z"/><path class="cls-6" d="M320.94,156.32a9.18,9.18,0,0,1-2.24,6.11,7.07,7.07,0,0,1-10.82,0,9.41,9.41,0,0,1,0-12.21,7.21,7.21,0,0,1,5.41-2.53c2.11,0,6.55,1,7.94,2.53S320.94,153.94,320.94,156.32Z"/><path class="cls-6" d="M269.3,156.32a9.18,9.18,0,0,0,2.24,6.11,7.07,7.07,0,0,0,10.82,0,9.41,9.41,0,0,0,0-12.21,7.21,7.21,0,0,0-5.41-2.53c-2.11,0-6.55,1-7.94,2.53S269.3,153.94,269.3,156.32Z"/><path class="cls-9" d="M320.05,132.73a83.45,83.45,0,0,1-.05,8.61c-.3,3.17-1.16,6.16-3.4,7.52-4.07-8,.21-14.57-3.77-18.16s-16.22-5.18-19.64-5.18-13.9,1.77-16.59,5.5S279,141.45,273,149.3c-2.24-1.36-2.87-4.46-2.94-7.74s.41-6.75.41-8.83a10.21,10.21,0,0,1,1.95-5.86,17.25,17.25,0,0,1,5.31-4.79,46.54,46.54,0,0,1,7.87-3.92,25.91,25.91,0,0,1,19.28,0,46.54,46.54,0,0,1,7.87,3.92,17.25,17.25,0,0,1,5.31,4.79A10.21,10.21,0,0,1,320.05,132.73Z"/><line class="cls-10" x1="287.18" y1="135.04" x2="303.06" y2="135.04"/><line class="cls-10" x1="289.24" y1="138.5" x2="301.24" y2="138.5"/><circle class="cls-5" cx="286.03" cy="153.86" r="2.33"/><circle class="cls-5" cx="304.22" cy="153.86" r="2.33"/><path class="cls-11" d="M282.46,148.73a3.74,3.74,0,0,1,.74-1.06,4,4,0,0,1,5.65,0,4,4,0,0,1,.75,1.06h1.09a5.06,5.06,0,0,0-1.13-1.77,5,5,0,0,0-7.07,0,5.06,5.06,0,0,0-1.13,1.77Z"/><path class="cls-11" d="M300.65,148.73a3.74,3.74,0,0,1,.74-1.06,4,4,0,0,1,5.65,0,4,4,0,0,1,.75,1.06h1.09a5.06,5.06,0,0,0-1.13-1.77,5,5,0,0,0-7.07,0,5.06,5.06,0,0,0-1.13,1.77Z"/><rect class="cls-12" x="290.12" y="168.55" width="10" height="2.3" rx="1.15"/><path class="cls-11" d="M303.68,178.26c-4.67,5.09-2.94-3.44-8.05-4.44v-.1l-.51,0-.51,0v.1c-5.11,1-3.38,9.53-8.05,4.44-12.18-6-14.11-38.62-14.11-28.82s2.58,18.68,6.76,25.1c4,6.14,9.45,10,15.49,10.36v0h.84v0c6-.33,11.5-4.22,15.49-10.36,4.18-6.42,6.76-15.3,6.76-25.1S315.86,172.26,303.68,178.26Z"/><polygon class="cls-15" points="294.36 301.29 308.69 320.3 319.36 293.29 326.24 254.69 326.24 194.07 308.69 189.07 308.69 189.07 294.36 205.28 294.36 301.29"/><polygon class="cls-15" points="294.36 301.29 281.68 320.3 269.36 293.29 264.13 254.69 264.13 194.07 281.68 189.07 281.68 189.07 294.36 205.28 294.36 301.29"/><rect class="cls-15" x="264.13" y="250.89" width="62.1" height="69.41"/><path class="cls-14" d="M287.33,243a5.55,5.55,0,0,1,4.32,5.68,6.45,6.45,0,0,1-2.18,5,8.09,8.09,0,0,1-5.64,2,10.5,10.5,0,0,1-4.75-1c-1.39-.68-2.09-1.44-2.09-2.26a1.14,1.14,0,0,1,.38-.87,1.36,1.36,0,0,1,.92-.34,10.14,10.14,0,0,1,2.17.9A8.08,8.08,0,0,0,284,253a4.81,4.81,0,0,0,3.4-1.19,4.32,4.32,0,0,0,.41-5.74,4.16,4.16,0,0,0-2.49-1.38,12.35,12.35,0,0,0-1.25-.14q-1.47-.09-1.47-1.23c0-.69.48-1.09,1.44-1.21l.93-.12a3.66,3.66,0,0,0,2.21-1.13,3.12,3.12,0,0,0,.85-2.21,3.74,3.74,0,0,0-1-2.73,3.55,3.55,0,0,0-2.64-1,6,6,0,0,0-3,.91,6.22,6.22,0,0,1-1.94.92,1.14,1.14,0,0,1-.82-.32,1.07,1.07,0,0,1-.32-.79c0-.72.65-1.43,2-2.14a9,9,0,0,1,4.35-1.06,6.48,6.48,0,0,1,4.56,1.66,5.3,5.3,0,0,1,1.82,4.09,5,5,0,0,1-.87,3A5.68,5.68,0,0,1,287.33,243Z"/><path class="cls-14" d="M310.19,244.51a6.64,6.64,0,0,1-2.09,1.81,5.43,5.43,0,0,1-2.51.59,6.19,6.19,0,0,1-4.72-2.08,7.2,7.2,0,0,1-1.95-5.12,7.52,7.52,0,0,1,1.88-5.26,6.15,6.15,0,0,1,4.79-2.07,6.65,6.65,0,0,1,5.55,2.77,11.83,11.83,0,0,1,2.11,7.34q0,6-3.09,9.62a10.32,10.32,0,0,1-8.25,3.59,6,6,0,0,1-2.17-.25.89.89,0,0,1-.53-.91c0-.75.69-1.14,2.09-1.18a12.86,12.86,0,0,0,2.19-.19,7.11,7.11,0,0,0,4.51-2.76A11.84,11.84,0,0,0,310.19,244.51Zm-.37-4.71a5.25,5.25,0,0,0-1.15-3.54,3.69,3.69,0,0,0-2.94-1.37,3.39,3.39,0,0,0-2.76,1.29,5.06,5.06,0,0,0-1.06,3.35A5.29,5.29,0,0,0,303,243a3.52,3.52,0,0,0,2.85,1.35,3.58,3.58,0,0,0,2.83-1.3A4.79,4.79,0,0,0,309.82,239.8Z"/><path class="cls-16" d="M307.45,185.25c.1.13.19.27.28.41"/><path class="cls-17" d="M308.26,186.49a27.65,27.65,0,0,1,1.39,2.59"/><path class="cls-18" d="M309.65,189.08a32.55,32.55,0,0,1,2.85,13.58,30.59,30.59,0,0,1-5.05,17.41c-3.12,4.46-7.43,7.21-12.18,7.21s-9.07-2.75-12.19-7.21a32.61,32.61,0,0,1-.28-34.41"/><path class="cls-16" d="M282.8,185.66c.09-.14.18-.28.28-.41"/><polygon class="cls-3" points="298.04 231.35 293.35 231.35 291 235.42 293.35 239.49 298.04 239.49 300.39 235.42 298.04 231.35"/><path class="cls-16" d="M310,187.25l.3.39"/><path class="cls-19" d="M310.84,188.44c.54.8,1.05,1.64,1.52,2.51"/><path class="cls-20" d="M312.36,191a33.2,33.2,0,0,1,3.76,15.62A31.83,31.83,0,0,1,310,225.89c-3.8,5-9.05,8-14.85,8s-11.05-3-14.85-8a33.47,33.47,0,0,1-.3-38.24"/><path class="cls-16" d="M280,187.64l.3-.39"/><path class="cls-15" d="M342.89,288.27v-86.1a5.64,5.64,0,0,0-5.68-5.57H335a5.65,5.65,0,0,0-5.68,5.57V307.7a5.36,5.36,0,0,0,.4,2v3.57h13.6v-25Z"/><path class="cls-15" d="M260.55,288.27v-86.1a5.65,5.65,0,0,0-5.68-5.57h-2.24a5.65,5.65,0,0,0-5.68,5.57V307.7a5.36,5.36,0,0,0,.4,2v3.57H261v-25Z"/><path class="cls-14" d="M250.4,206.09a3.72,3.72,0,0,0-3.09-1.54c-.13,0-.24,0-.36,0V206a3,3,0,0,1,.44,0,2,2,0,0,1,1.63.76,2.92,2.92,0,0,1,.64,2,2.66,2.66,0,0,1-.62,1.82,2,2,0,0,1-1.57.71,2.12,2.12,0,0,1-.52-.06v1.44a2.2,2.2,0,0,0,.36,0,3,3,0,0,0,1.4-.33,3.63,3.63,0,0,0,1.16-1,6.61,6.61,0,0,1-1.22,3.28,3.84,3.84,0,0,1-1.7,1.3v1.44a5.45,5.45,0,0,0,2.9-1.8,7.88,7.88,0,0,0,1.72-5.34A6.59,6.59,0,0,0,250.4,206.09Z"/><rect class="cls-14" x="246.95" y="249.94" width="13.6" height="4.29"/><rect class="cls-14" x="246.95" y="258.21" width="13.6" height="4.29"/><rect class="cls-14" x="329.49" y="249.94" width="13.6" height="4.29"/><rect class="cls-14" x="329.49" y="258.21" width="13.6" height="4.29"/><path class="cls-13" d="M295.58,490.45a16.52,16.52,0,0,1,33,0"/><path class="cls-13" d="M294.66,490.45a16.52,16.52,0,0,0-33,0"/><path class="cls-7" d="M526.51,137.25c0,23.47-11.41,69.24-27.61,69.24s-28.67-45.77-28.67-69.24,11.18-3.52,27.38-3.52S526.51,113.78,526.51,137.25Z"/><polygon class="cls-7" points="501.93 190 508.77 182.71 513.15 186.82 503.56 197.03 501.93 190"/><polygon class="cls-7" points="495.15 190 488.3 182.71 483.93 186.82 493.51 197.03 495.15 190"/><polygon class="cls-8" points="523.08 310.75 473.07 310.75 472.07 290.75 522.08 290.75 523.08 310.75"/><line class="cls-10" x1="489.67" y1="132.51" x2="505.55" y2="132.51"/><line class="cls-10" x1="491.73" y1="135.96" x2="503.73" y2="135.96"/><polygon class="cls-5" points="493.83 477.17 470.91 477.17 472.91 291.05 492.83 291.05 493.83 477.17"/><polygon class="cls-5" points="525.83 477.17 502.91 477.17 502.91 291.05 522.83 291.05 525.83 477.17"/><path class="cls-21" d="M493.44,220.2l-3-1.67.1,1.63a4.77,4.77,0,0,0-6.26,5.39,6,6,0,0,1,.27,1.72c-.06.58-.54,1.18-1.12,1.1.6,2.14,4.56,1,5.61,3,.87,1.65-1.27,3.64-.65,5.39a2.76,2.76,0,0,0,1.15,1.31,4.08,4.08,0,0,0,4.06.3,3,3,0,0,0,1.37-3.64,13.44,13.44,0,0,1-.9-1.61c-.36-1.15.46-2.34,1.39-3.12a9.51,9.51,0,0,0,2.61-2.48,4.23,4.23,0,0,0-.75-4.47A12.18,12.18,0,0,0,493.44,220.2Z"/><path class="cls-21" d="M512.82,224.49l-3.27-1.88c1.34,1.63,0,4.17.08,6.24l3.3,4A6.35,6.35,0,0,0,512.82,224.49Z"/><path class="cls-21" d="M498.82,236.06c.13-.26.27-.52.42-.76A.85.85,0,0,0,498.82,236.06Z"/><path class="cls-21" d="M505.64,221.14c1.36-.67,2.17-2.77,3.76-3.23a21.79,21.79,0,0,0-4.6-4l-.08-.8a7.37,7.37,0,0,0-.9.22c-.2-.12-.4-.26-.61-.37l.16.53a8,8,0,0,0-4.16,3.61,22.16,22.16,0,0,0,3.71,3.47,3.31,3.31,0,0,0,1.77.81,1.85,1.85,0,0,0,.82-.16l-.07-.73Z"/><path class="cls-21" d="M508.79,231.76l1.34,4.52c1.25-1,2.64-2.54,1.88-3.94-.4-.72-1.25-1.06-1.78-1.69a2.79,2.79,0,0,1-.6-1.8l-1.73-2.09A29.27,29.27,0,0,1,508.79,231.76Z"/><path class="cls-21" d="M505.51,221.2l.12,1.23a3.38,3.38,0,0,0-2.67,5.8c.71.69,1.85,1.48,1.39,2.36a1.82,1.82,0,0,1-.86.68,11.19,11.19,0,0,0-4.25,4,1.27,1.27,0,0,1,.67-.22,3.08,3.08,0,0,1,1.51.57l4.56,2.72a2.22,2.22,0,0,0,1.81.45c.74-.27.95-1.21,1-2a29.48,29.48,0,0,0,0-5.06l-3.15-10.62A.52.52,0,0,1,505.51,221.2Z"/><rect class="cls-6" x="450.43" y="308" width="13.54" height="22.45" rx="4"/><path class="cls-7" d="M463.8,285.73v-86.1a5.64,5.64,0,0,0-5.68-5.57h-2.24a5.65,5.65,0,0,0-5.68,5.57V305.16a5.32,5.32,0,0,0,.4,2v3.57h13.6v-25Z"/><ellipse class="cls-7" cx="498.37" cy="186.97" rx="20.64" ry="8.06"/><rect class="cls-6" x="532.78" y="308" width="13.54" height="22.45" rx="4"/><path class="cls-7" d="M546.15,285.73v-86.1a5.65,5.65,0,0,0-5.69-5.57h-2.23a5.65,5.65,0,0,0-5.69,5.57V305.16a5.32,5.32,0,0,0,.4,2v3.57h13.6v-25Z"/><rect class="cls-7" x="467.39" y="248.35" width="62.1" height="69.41"/><polygon class="cls-6" points="515.01 186.75 498.03 202.75 482.26 186.75 489.54 186.75 489.54 179.75 498.64 179.75 507.74 179.75 507.74 186.75 515.01 186.75"/><path class="cls-6" d="M520.92,148.32c0,9.57-2.52,18.24-6.6,24.51S504.6,183,498.37,183s-11.86-3.88-15.94-10.15-6.6-14.94-6.6-24.51-1.27-18.23,2.81-24.5,13.51-10.16,19.73-10.16,15.66,3.88,19.74,10.16S520.92,138.75,520.92,148.32Z"/><path class="cls-6" d="M524.2,153.79a9.16,9.16,0,0,1-2.25,6.1,7,7,0,0,1-10.82,0,9.44,9.44,0,0,1,0-12.21,7.22,7.22,0,0,1,5.41-2.52c2.12,0,6.56,1,7.94,2.52S524.2,151.4,524.2,153.79Z"/><path class="cls-6" d="M472.55,153.79a9.21,9.21,0,0,0,2.24,6.1,7.06,7.06,0,0,0,10.83,0,9.44,9.44,0,0,0,0-12.21,7.23,7.23,0,0,0-5.41-2.52c-2.12,0-6.56,1-7.95,2.52S472.55,151.4,472.55,153.79Z"/><path class="cls-9" d="M523.3,130.19a83.09,83.09,0,0,1,0,8.61c-.3,3.17-1.16,6.16-3.41,7.53-4.07-8,.21-14.58-3.77-18.17S499.86,123,496.44,123s-13.9,1.77-16.59,5.5,2.41,10.44-3.55,18.29c-2.24-1.37-2.88-4.47-2.95-7.75s.42-6.75.42-8.83a10.2,10.2,0,0,1,1.94-5.86,17.49,17.49,0,0,1,5.31-4.79,46.54,46.54,0,0,1,7.87-3.91,25.78,25.78,0,0,1,19.28,0,46.17,46.17,0,0,1,7.87,3.91,17.26,17.26,0,0,1,5.31,4.79A10.14,10.14,0,0,1,523.3,130.19Z"/><circle class="cls-5" cx="489.28" cy="151.32" r="2.33"/><circle class="cls-5" cx="507.47" cy="151.32" r="2.33"/><path class="cls-11" d="M485.71,146.19a3.89,3.89,0,0,1,.74-1.06,4,4,0,0,1,5.66,0,4.38,4.38,0,0,1,.74,1.06h1.09a4.92,4.92,0,0,0-1.13-1.77,5,5,0,0,0-7.07,0,5,5,0,0,0-1.12,1.77Z"/><path class="cls-11" d="M503.9,146.19a3.89,3.89,0,0,1,.74-1.06,4,4,0,0,1,5.66,0,4.38,4.38,0,0,1,.74,1.06h1.09a4.92,4.92,0,0,0-1.13-1.77,5,5,0,0,0-7.07,0,5,5,0,0,0-1.12,1.77Z"/><rect class="cls-12" x="493.37" y="166.01" width="10" height="2.3" rx="1.15"/><path class="cls-11" d="M506.94,175.72c-4.68,5.1-2.94-3.43-8.06-4.44v-.1l-.52,0-.51,0v.1c-5.11,1-3.38,9.54-8.05,4.44-12.17-6-14.11-38.62-14.11-28.82s2.58,18.68,6.76,25.1c4,6.14,9.45,10,15.5,10.36v0l.41,0,.42,0v0c6-.33,11.5-4.22,15.49-10.36,4.18-6.42,6.77-15.29,6.77-25.1S519.11,169.72,506.94,175.72Z"/><path class="cls-7" d="M526.51,136.25c0-3.51-3.15-20.68-8.24-23s-12.13-3.72-19.9-3.72-14.8,1.42-19.9,3.72-8.24,19.47-8.24,23"/><polygon class="cls-7" points="497.62 298.75 511.94 317.76 522.62 290.75 529.49 252.15 529.49 191.54 511.94 186.54 511.94 186.54 497.62 202.75 497.62 298.75"/><polygon class="cls-7" points="497.62 298.75 484.94 317.76 472.62 290.75 467.39 252.15 467.39 191.54 484.94 186.54 484.94 186.54 497.62 202.75 497.62 298.75"/><path class="cls-5" d="M486.71,189.14c-4.68,3.79-7.06,11.24-2,15.69,1.43,1.25,2.85,2.34,3.5,4.2a7.77,7.77,0,0,1,0,5.17c-.8,2.2-4.79,5.51-2.14,7.83.73.63,1.79-.43,1.06-1.06-1.28-1.12.78-3.33,1.46-4.32a8.61,8.61,0,0,0,1.47-3.77,8.92,8.92,0,0,0-2.5-7.56c-1.13-1.11-2.53-1.94-3.38-3.3a6.6,6.6,0,0,1-.86-4.24,11.67,11.67,0,0,1,4.41-7.58c.75-.6-.31-1.66-1.06-1.06Z"/><path class="cls-5" d="M506.4,190.52c-.79,5.25,4.05,8.54,5.53,13.11,2.21,6.81-9,7.11-8.72,13.49a6.61,6.61,0,0,0,1.66,3.68c.87,1.13,2.29,2.48,2.05,4.06-.15.94,1.3,1.35,1.45.4.41-2.69-1.75-4.28-3-6.36-2.15-3.54,1.93-5.87,4.44-7.56,2.16-1.47,4.08-3.46,3.94-6.25-.12-2.35-1.49-4.43-2.75-6.33-1.51-2.28-3.57-4.93-3.14-7.84.14-.94-1.3-1.35-1.44-.4Z"/><path class="cls-13" d="M499.71,487.91a16.52,16.52,0,0,1,33,0"/><path class="cls-13" d="M498.78,487.91a16.52,16.52,0,0,0-33,0"/><path class="cls-7" d="M466.56,485.38a16.36,16.36,0,0,0-.81,5.07h33a16.36,16.36,0,0,0-.8-5.07Z"/><path class="cls-7" d="M500.51,485a16.36,16.36,0,0,0-.8,5.07h33a16.36,16.36,0,0,0-.81-5.07Z"/><polygon class="cls-8" points="697.3 478.01 674.38 478.01 676.38 291.89 696.3 291.89 697.3 478.01"/><polygon class="cls-8" points="729.3 478.01 706.38 478.01 706.38 291.89 726.3 291.89 729.3 478.01"/><rect class="cls-14" x="675.52" y="251.2" width="52.63" height="52.63"/><polygon class="cls-6" points="718.21 187.59 701.23 203.59 685.46 187.59 692.74 187.59 692.74 180.59 701.84 180.59 710.93 180.59 710.93 187.59 718.21 187.59"/><rect class="cls-6" x="653.45" y="308.84" width="13.54" height="22.45" rx="4"/><rect class="cls-6" x="735.79" y="308.84" width="13.54" height="22.45" rx="4"/><path class="cls-8" d="M749.16,286.57v-86.1a5.65,5.65,0,0,0-5.68-5.57h-2.24a5.64,5.64,0,0,0-5.68,5.57V306a5.32,5.32,0,0,0,.4,2v3.57h13.6v-25Z"/><path class="cls-8" d="M666.82,286.57v-86.1a5.65,5.65,0,0,0-5.69-5.57H658.9a5.65,5.65,0,0,0-5.69,5.57V306a5.32,5.32,0,0,0,.4,2v3.57h13.6v-25Z"/><path class="cls-6" d="M724.38,151.18c0,9-2.52,17.17-6.6,23.08s-9.72,9.56-15.94,9.56-11.87-3.65-16-9.56-6.6-14.07-6.6-23.08S678,134,682.1,128.1s13.51-9.55,19.74-9.55,15.65,3.65,19.73,9.55S724.38,142.17,724.38,151.18Z"/><path class="cls-6" d="M727.66,156.33a8.37,8.37,0,0,1-2.24,5.74,7.35,7.35,0,0,1-10.83,0,8.49,8.49,0,0,1,0-11.49A7.43,7.43,0,0,1,720,148.2c2.12,0,6.56.91,8,2.38S727.66,154.08,727.66,156.33Z"/><path class="cls-6" d="M676,156.33a8.37,8.37,0,0,0,2.24,5.74,7.35,7.35,0,0,0,10.83,0,8.49,8.49,0,0,0,0-11.49,7.43,7.43,0,0,0-5.41-2.38c-2.12,0-6.56.91-7.94,2.38S676,154.08,676,156.33Z"/><circle class="cls-5" cx="692.74" cy="152.16" r="2.33"/><circle class="cls-5" cx="710.93" cy="152.16" r="2.33"/><line class="cls-10" x1="693.9" y1="133.35" x2="709.77" y2="133.35"/><line class="cls-10" x1="695.84" y1="136.8" x2="707.84" y2="136.8"/><path class="cls-11" d="M689.17,147a4,4,0,0,1,.74-1.06,4,4,0,0,1,5.66,0,4,4,0,0,1,.74,1.06h1.09a5,5,0,0,0-9.32,0Z"/><path class="cls-11" d="M707.36,147a4,4,0,0,1,.74-1.06,4,4,0,0,1,5.66,0,4,4,0,0,1,.74,1.06h1.09a5,5,0,0,0-9.32,0Z"/><rect class="cls-12" x="696.84" y="166.85" width="10" height="2.3" rx="1.15"/><path class="cls-11" d="M710.4,176.56c-4.68,5.1-2.94-3.44-8-4.44V172l-.51,0-.52,0v.1c-5.11,1-3.37,9.54-8.05,4.44-12.17-6-14.11-38.62-14.11-28.82s2.59,18.68,6.76,25.1c4,6.14,9.45,10,15.5,10.36v0h.83v0c6-.33,11.5-4.22,15.5-10.36,4.17-6.42,6.76-15.3,6.76-25.1S722.57,170.56,710.4,176.56Z"/><path class="cls-22" d="M702.3,488.7a16.52,16.52,0,0,1,33,0"/><path class="cls-22" d="M701.37,488.7a16.52,16.52,0,0,0-33,0"/><rect class="cls-23" x="685.87" y="147.22" width="14" height="12" rx="4"/><rect class="cls-23" x="703.8" y="147.22" width="14" height="12" rx="4"/><rect class="cls-8" x="684.84" y="148.26" width="34" height="1"/><rect class="cls-8" x="679.14" y="148.83" width="6.76" height="1" transform="translate(-13.06 83.79) rotate(-6.96)"/><rect class="cls-8" x="720.92" y="145.95" width="1" height="6.76" transform="translate(485.34 847.2) rotate(-83)"/><polygon class="cls-8" points="695.96 296.7 675.69 300.52 671.28 282.59 671.28 247.15 671.28 191.93 685.61 187.38 685.61 187.38 695.96 202.14 695.96 296.7"/><polygon class="cls-8" points="707.72 296.7 727.98 300.52 732.39 282.59 732.39 247.15 732.39 191.93 718.07 187.38 718.07 187.38 707.72 202.14 707.72 296.7"/><path class="cls-14" d="M701.57,228.55c.16.55.31,1,.43,1.53.42,1.69-.1,2.52-1.79,2.95a.8.8,0,0,1-1.09-.48l-.46.41a1.23,1.23,0,0,1-2.14-.55,7.25,7.25,0,0,1-.25-1.81c0-.61,0-1.22,0-2-.24.33-.42.56-.6.8-.46.63-.88,1.3-1.4,1.88a1.21,1.21,0,0,1-1.93.11c-.76-.69-1.6-1.39-1.56-2.56a3.39,3.39,0,0,1,1.81-2.88c.37-.22.77-.37,1.28-.61a5.56,5.56,0,0,1-3.37-2.32,1.4,1.4,0,0,1,.07-2,1.92,1.92,0,0,1,1.06-.43c.29,0,.41,0,.43-.35a1.59,1.59,0,0,1,1.66-1.69,1.28,1.28,0,0,1,1.2.6c.65,1,1.23,1.94,1.83,2.92l.36.57.18,0c0-.42,0-.85,0-1.26a3.12,3.12,0,0,1,1.44-2.75c.82-.68,1.78-.45,2.7-.42.19,0,.4.33.54.55a6.24,6.24,0,0,1,.63,4.65c.3-.12.56-.24.83-.32a2,2,0,0,1,2.73,1.93,3.37,3.37,0,0,1-2,3.43,6,6,0,0,1-1.91.17A4,4,0,0,1,701.57,228.55ZM699.14,225c.07-.61-.18-.88-.73-.82a2.25,2.25,0,0,0-1.93,1.69,1.63,1.63,0,0,0,.62,1.64,1.1,1.1,0,0,0,1.51-.08,5.53,5.53,0,0,0,1.09-1.07C700.24,225.66,700.05,225.23,699.14,225Z"/><path class="cls-14" d="M695.26,269.14c.15.55.31,1,.43,1.54.42,1.69-.1,2.52-1.79,2.95a.8.8,0,0,1-1.09-.48c-.17.15-.31.28-.46.4a1.23,1.23,0,0,1-2.14-.54,7.33,7.33,0,0,1-.25-1.82c0-.61,0-1.22,0-2l-.6.8a23.34,23.34,0,0,1-1.4,1.87A1.2,1.2,0,0,1,686,272c-.76-.69-1.61-1.39-1.56-2.56a3.41,3.41,0,0,1,1.81-2.88c.36-.21.77-.37,1.28-.6a5.53,5.53,0,0,1-3.37-2.32,1.41,1.41,0,0,1,.07-2,1.91,1.91,0,0,1,1.06-.42c.29,0,.41,0,.43-.35a1.6,1.6,0,0,1,1.66-1.7,1.29,1.29,0,0,1,1.2.61c.65.95,1.22,1.94,1.83,2.92l.36.56.18,0c0-.42,0-.84,0-1.26a3.15,3.15,0,0,1,1.45-2.75c.82-.67,1.78-.44,2.69-.41.19,0,.41.32.55.54a6.27,6.27,0,0,1,.63,4.66,7.35,7.35,0,0,1,.83-.32,2,2,0,0,1,2.73,1.92,3.39,3.39,0,0,1-2,3.44,6.31,6.31,0,0,1-1.91.16A3.07,3.07,0,0,1,695.26,269.14Zm-2.43-3.5c.06-.61-.18-.88-.73-.83a2.25,2.25,0,0,0-1.93,1.7,1.6,1.6,0,0,0,.62,1.63,1.08,1.08,0,0,0,1.5-.07,5.36,5.36,0,0,0,1.1-1.08C693.93,266.25,693.74,265.83,692.83,265.64Z"/><path class="cls-14" d="M679.6,287.05c.16.55.31,1,.43,1.54.42,1.69-.1,2.52-1.79,3a.8.8,0,0,1-1.09-.48l-.46.41a1.23,1.23,0,0,1-2.14-.55,7.33,7.33,0,0,1-.25-1.82c0-.61,0-1.22,0-2l-.6.8c-.46.63-.88,1.3-1.4,1.88a1.2,1.2,0,0,1-1.93.1c-.76-.69-1.6-1.39-1.56-2.55a3.39,3.39,0,0,1,1.81-2.88,13,13,0,0,1,1.28-.61,5.56,5.56,0,0,1-3.37-2.32,1.42,1.42,0,0,1,.07-2,1.91,1.91,0,0,1,1.06-.42c.29,0,.41,0,.43-.35a1.6,1.6,0,0,1,1.66-1.7,1.29,1.29,0,0,1,1.2.61c.65,1,1.23,1.94,1.83,2.92l.36.56.18,0c0-.42,0-.84,0-1.26a3.14,3.14,0,0,1,1.44-2.75c.82-.67,1.78-.44,2.7-.41.19,0,.4.33.54.54a6.27,6.27,0,0,1,.63,4.66,7.35,7.35,0,0,1,.83-.32,2,2,0,0,1,2.73,1.93,3.37,3.37,0,0,1-2,3.43,6.28,6.28,0,0,1-1.91.16A3.26,3.26,0,0,1,679.6,287.05Zm-2.43-3.5c.07-.61-.18-.88-.73-.83a2.27,2.27,0,0,0-1.93,1.7,1.62,1.62,0,0,0,.62,1.63,1.09,1.09,0,0,0,1.51-.07,5.31,5.31,0,0,0,1.09-1.08C678.27,284.16,678.09,283.74,677.17,283.55Z"/><path class="cls-14" d="M686.53,246.4c.16.55.32,1,.44,1.54.41,1.69-.1,2.51-1.79,2.95a.8.8,0,0,1-1.09-.48c-.17.15-.31.28-.46.4a1.23,1.23,0,0,1-2.14-.54,7.33,7.33,0,0,1-.25-1.82c0-.61,0-1.22,0-2-.25.32-.42.56-.6.8-.46.62-.88,1.29-1.4,1.87a1.2,1.2,0,0,1-1.93.11c-.76-.69-1.61-1.39-1.56-2.56a3.41,3.41,0,0,1,1.8-2.88c.37-.21.78-.37,1.28-.61a5.55,5.55,0,0,1-3.37-2.32,1.41,1.41,0,0,1,.08-2,1.88,1.88,0,0,1,1.06-.42c.29,0,.41,0,.43-.35a1.6,1.6,0,0,1,1.66-1.7,1.3,1.3,0,0,1,1.2.6c.64.95,1.22,1.95,1.83,2.92l.36.57.18,0c0-.42,0-.84,0-1.26a3.15,3.15,0,0,1,1.45-2.75c.82-.67,1.78-.45,2.69-.41.19,0,.41.32.55.54a6.2,6.2,0,0,1,.62,4.65c.31-.11.57-.24.84-.32a2,2,0,0,1,2.73,1.93,3.39,3.39,0,0,1-2,3.44,6.31,6.31,0,0,1-1.91.16A3.25,3.25,0,0,1,686.53,246.4Zm-2.42-3.5c.06-.61-.18-.88-.73-.83a2.25,2.25,0,0,0-1.93,1.7,1.6,1.6,0,0,0,.62,1.63,1.07,1.07,0,0,0,1.5-.08,5.08,5.08,0,0,0,1.1-1.07C685.21,243.51,685,243.09,684.11,242.9Z"/><path class="cls-14" d="M686.16,212.19c.16.55.31,1,.44,1.54.41,1.68-.11,2.51-1.8,2.94a.79.79,0,0,1-1.09-.47l-.45.4a1.24,1.24,0,0,1-2.15-.54,7.33,7.33,0,0,1-.25-1.82c0-.61,0-1.22,0-2l-.6.79c-.46.63-.88,1.3-1.4,1.88a1.2,1.2,0,0,1-1.93.11c-.76-.69-1.6-1.39-1.55-2.56a3.36,3.36,0,0,1,1.8-2.88c.37-.21.77-.37,1.28-.61a5.56,5.56,0,0,1-3.37-2.32,1.4,1.4,0,0,1,.07-1.95,1.84,1.84,0,0,1,1.06-.42c.29,0,.42,0,.43-.36a1.59,1.59,0,0,1,1.66-1.69,1.3,1.3,0,0,1,1.2.6c.65.95,1.23,1.95,1.83,2.92l.36.57.18,0c0-.42,0-.84,0-1.26a3.14,3.14,0,0,1,1.44-2.75c.83-.68,1.78-.45,2.7-.41.19,0,.4.32.54.54a6.25,6.25,0,0,1,.63,4.65c.3-.11.56-.24.83-.32a2,2,0,0,1,2.73,1.93,3.37,3.37,0,0,1-2,3.44,6.28,6.28,0,0,1-1.91.16A3.26,3.26,0,0,1,686.16,212.19Zm-2.43-3.5c.07-.62-.18-.89-.72-.83a2.27,2.27,0,0,0-1.94,1.7,1.62,1.62,0,0,0,.62,1.63,1.1,1.1,0,0,0,1.51-.08,5.27,5.27,0,0,0,1.09-1.07C684.83,209.3,684.65,208.88,683.73,208.69Z"/><path class="cls-14" d="M730.29,243.64c.15.55.31,1,.43,1.53.42,1.69-.1,2.52-1.79,3a.8.8,0,0,1-1.09-.48l-.46.41a1.23,1.23,0,0,1-2.14-.55,7.25,7.25,0,0,1-.25-1.81c0-.61,0-1.22,0-2-.24.33-.42.56-.6.8-.46.63-.88,1.3-1.4,1.88a1.2,1.2,0,0,1-1.93.11c-.76-.69-1.61-1.39-1.56-2.56A3.39,3.39,0,0,1,721.3,241c.36-.22.77-.37,1.28-.61a5.53,5.53,0,0,1-3.37-2.32,1.4,1.4,0,0,1,.07-2,1.84,1.84,0,0,1,1.06-.42c.29,0,.41,0,.43-.36a1.59,1.59,0,0,1,1.66-1.69,1.28,1.28,0,0,1,1.2.6c.65,1,1.22,1.94,1.83,2.92l.36.57.18,0c0-.42,0-.85,0-1.26a3.16,3.16,0,0,1,1.45-2.75c.82-.68,1.78-.45,2.7-.42.19,0,.4.33.54.55a6.24,6.24,0,0,1,.63,4.65c.3-.12.56-.24.83-.32a2,2,0,0,1,2.73,1.93,3.38,3.38,0,0,1-2,3.43,6,6,0,0,1-1.91.17A3.9,3.9,0,0,1,730.29,243.64Zm-2.43-3.51c.07-.61-.18-.88-.73-.82A2.25,2.25,0,0,0,725.2,241a1.62,1.62,0,0,0,.62,1.64,1.1,1.1,0,0,0,1.51-.08,5.53,5.53,0,0,0,1.09-1.07C729,240.75,728.77,240.32,727.86,240.13Z"/><path class="cls-14" d="M730.29,196.75c.15.55.31,1,.43,1.54.42,1.69-.1,2.52-1.79,3a.8.8,0,0,1-1.09-.48l-.46.41a1.23,1.23,0,0,1-2.14-.55,7.33,7.33,0,0,1-.25-1.82c0-.61,0-1.22,0-2l-.6.8a21.67,21.67,0,0,1-1.4,1.87,1.2,1.2,0,0,1-1.93.11c-.76-.69-1.61-1.39-1.56-2.56a3.38,3.38,0,0,1,1.81-2.87,12,12,0,0,1,1.28-.61,5.53,5.53,0,0,1-3.37-2.32,1.42,1.42,0,0,1,.07-2,1.91,1.91,0,0,1,1.06-.42c.29,0,.41,0,.43-.35a1.6,1.6,0,0,1,1.66-1.7,1.29,1.29,0,0,1,1.2.61c.65,1,1.22,1.94,1.83,2.92l.36.56.18,0c0-.42,0-.84,0-1.26a3.17,3.17,0,0,1,1.45-2.75c.82-.67,1.78-.44,2.7-.41.19,0,.4.33.54.54a6.27,6.27,0,0,1,.63,4.66,7.35,7.35,0,0,1,.83-.32,2,2,0,0,1,2.73,1.92,3.39,3.39,0,0,1-2,3.44,6.31,6.31,0,0,1-1.91.16A3.07,3.07,0,0,1,730.29,196.75Zm-2.43-3.5c.07-.61-.18-.88-.73-.83a2.27,2.27,0,0,0-1.93,1.7,1.6,1.6,0,0,0,.62,1.63,1.09,1.09,0,0,0,1.51-.07,5.58,5.58,0,0,0,1.09-1.08C729,193.86,728.77,193.44,727.86,193.25Z"/><path class="cls-14" d="M714.35,222.42c.16.55.32,1,.44,1.53.41,1.69-.11,2.52-1.79,3a.8.8,0,0,1-1.09-.48l-.46.41a1.24,1.24,0,0,1-2.15-.55,7.25,7.25,0,0,1-.24-1.81c0-.61,0-1.22,0-2-.25.33-.43.56-.6.8-.47.63-.88,1.3-1.4,1.88a1.21,1.21,0,0,1-1.93.11c-.76-.69-1.61-1.39-1.56-2.56a3.38,3.38,0,0,1,1.8-2.88c.37-.22.78-.37,1.28-.61a5.56,5.56,0,0,1-3.37-2.32,1.39,1.39,0,0,1,.08-1.95,1.89,1.89,0,0,1,1-.43c.3,0,.42,0,.43-.35a1.61,1.61,0,0,1,1.67-1.69,1.29,1.29,0,0,1,1.2.6c.64,1,1.22,1.94,1.83,2.92.11.19.24.38.36.57l.18,0c0-.42,0-.85,0-1.26a3.11,3.11,0,0,1,1.45-2.75c.82-.68,1.78-.45,2.69-.42.19,0,.41.33.55.55a6.24,6.24,0,0,1,.62,4.65c.3-.12.56-.24.83-.32a2,2,0,0,1,2.74,1.93,3.39,3.39,0,0,1-2,3.43,6,6,0,0,1-1.91.17A4.16,4.16,0,0,1,714.35,222.42Zm-2.42-3.51c.06-.61-.18-.88-.73-.82a2.26,2.26,0,0,0-1.94,1.69,1.63,1.63,0,0,0,.62,1.64,1.1,1.1,0,0,0,1.51-.08,5.27,5.27,0,0,0,1.09-1.07C713,219.53,712.84,219.1,711.93,218.91Z"/><path class="cls-14" d="M724.84,284.35c.16.55.32,1,.44,1.54.41,1.69-.1,2.52-1.79,2.95a.8.8,0,0,1-1.09-.48l-.46.41a1.23,1.23,0,0,1-2.14-.55,7.33,7.33,0,0,1-.25-1.82c0-.61,0-1.22,0-2-.25.33-.43.56-.6.8a21.67,21.67,0,0,1-1.4,1.87,1.2,1.2,0,0,1-1.93.11c-.76-.69-1.61-1.39-1.56-2.56a3.4,3.4,0,0,1,1.8-2.88c.37-.21.78-.37,1.28-.6a5.56,5.56,0,0,1-3.37-2.32,1.41,1.41,0,0,1,.08-2,1.88,1.88,0,0,1,1-.42c.3,0,.42,0,.43-.35a1.61,1.61,0,0,1,1.67-1.7,1.29,1.29,0,0,1,1.2.61c.64.95,1.22,1.94,1.83,2.92l.36.56.18,0c0-.42,0-.84,0-1.26a3.12,3.12,0,0,1,1.45-2.75c.82-.67,1.78-.44,2.69-.41.19,0,.41.32.55.54a6.27,6.27,0,0,1,.62,4.66,6.8,6.8,0,0,1,.84-.32,2,2,0,0,1,2.73,1.92,3.39,3.39,0,0,1-2,3.44,6.31,6.31,0,0,1-1.91.16A3.25,3.25,0,0,1,724.84,284.35Zm-2.42-3.5c.06-.61-.18-.88-.73-.83a2.26,2.26,0,0,0-1.93,1.7,1.59,1.59,0,0,0,.61,1.63,1.09,1.09,0,0,0,1.51-.07A5.31,5.31,0,0,0,723,282.2C723.52,281.46,723.33,281,722.42,280.85Z"/><path class="cls-14" d="M716.69,262.76c.15.55.31,1,.43,1.54.41,1.69-.1,2.52-1.79,2.95a.8.8,0,0,1-1.09-.48c-.17.15-.31.28-.46.4a1.23,1.23,0,0,1-2.14-.54,7.33,7.33,0,0,1-.25-1.82c0-.61,0-1.22,0-2l-.6.8a23.34,23.34,0,0,1-1.4,1.87,1.2,1.2,0,0,1-1.93.11c-.76-.69-1.61-1.39-1.56-2.56a3.41,3.41,0,0,1,1.81-2.88c.36-.21.77-.37,1.28-.6a5.62,5.62,0,0,1-3.38-2.32,1.42,1.42,0,0,1,.08-2,1.91,1.91,0,0,1,1.06-.42c.29,0,.41,0,.43-.35a1.6,1.6,0,0,1,1.66-1.7,1.29,1.29,0,0,1,1.2.61c.65,1,1.22,1.94,1.83,2.92l.36.56.18,0c0-.42,0-.84,0-1.26a3.15,3.15,0,0,1,1.45-2.75c.82-.67,1.78-.44,2.69-.41.19,0,.41.32.55.54a6.27,6.27,0,0,1,.63,4.66,7.35,7.35,0,0,1,.83-.32,2,2,0,0,1,2.73,1.92,3.39,3.39,0,0,1-2,3.44,6.31,6.31,0,0,1-1.91.16A3.07,3.07,0,0,1,716.69,262.76Zm-2.43-3.5c.06-.61-.18-.88-.73-.83a2.25,2.25,0,0,0-1.93,1.7,1.6,1.6,0,0,0,.62,1.63,1.08,1.08,0,0,0,1.5-.07,5.36,5.36,0,0,0,1.1-1.08C715.36,259.87,715.17,259.45,714.26,259.26Z"/><path class="cls-14" d="M750.71,219.8c.16.55.32,1,.44,1.53.41,1.69-.11,2.52-1.79,2.95a.8.8,0,0,1-1.09-.48l-.46.41a1.24,1.24,0,0,1-2.15-.55,6.89,6.89,0,0,1-.24-1.82c0-.6,0-1.22,0-2-.25.33-.43.56-.6.8-.47.63-.89,1.3-1.4,1.88a1.22,1.22,0,0,1-1.94.11c-.76-.69-1.6-1.4-1.55-2.56a3.38,3.38,0,0,1,1.8-2.88c.37-.22.77-.37,1.28-.61a5.56,5.56,0,0,1-3.37-2.32,1.41,1.41,0,0,1,.08-2,1.88,1.88,0,0,1,1-.42c.3,0,.42,0,.43-.35a1.61,1.61,0,0,1,1.67-1.7,1.3,1.3,0,0,1,1.2.61c.64,1,1.22,1.94,1.83,2.92.11.19.24.38.36.56l.18,0c0-.42,0-.84,0-1.26a3.12,3.12,0,0,1,1.45-2.75c.82-.67,1.78-.44,2.69-.41.19,0,.41.33.55.54a6.27,6.27,0,0,1,.62,4.66,7.35,7.35,0,0,1,.83-.32,2,2,0,0,1,2.74,1.93,3.39,3.39,0,0,1-2,3.43,6.31,6.31,0,0,1-1.91.16A4.08,4.08,0,0,1,750.71,219.8Zm-2.42-3.51c.06-.61-.18-.88-.73-.83a2.29,2.29,0,0,0-1.94,1.7,1.62,1.62,0,0,0,.62,1.63,1.09,1.09,0,0,0,1.51-.07,5.07,5.07,0,0,0,1.09-1.08C749.39,216.9,749.2,216.48,748.29,216.29Z"/><path class="cls-14" d="M742.7,297.69c.15.55.31,1,.43,1.54.41,1.69-.1,2.52-1.79,2.95a.8.8,0,0,1-1.09-.48c-.17.15-.31.28-.46.4a1.23,1.23,0,0,1-2.14-.54,7.33,7.33,0,0,1-.25-1.82c0-.61,0-1.22,0-2l-.6.8a23.34,23.34,0,0,1-1.4,1.87,1.2,1.2,0,0,1-1.93.11c-.76-.69-1.61-1.39-1.56-2.56a3.41,3.41,0,0,1,1.81-2.88c.36-.21.77-.37,1.28-.6a5.62,5.62,0,0,1-3.38-2.32,1.42,1.42,0,0,1,.08-2,1.88,1.88,0,0,1,1.06-.42c.29,0,.41,0,.43-.35a1.6,1.6,0,0,1,1.66-1.7,1.29,1.29,0,0,1,1.2.61c.64.95,1.22,1.94,1.83,2.92l.36.56.18,0c0-.42,0-.84,0-1.26a3.15,3.15,0,0,1,1.45-2.75c.82-.67,1.78-.44,2.69-.41.19,0,.41.32.55.54a6.22,6.22,0,0,1,.62,4.66,8.28,8.28,0,0,1,.84-.32,2,2,0,0,1,2.73,1.92,3.39,3.39,0,0,1-2,3.44,6.31,6.31,0,0,1-1.91.16A3.07,3.07,0,0,1,742.7,297.69Zm-2.43-3.5c.06-.61-.18-.88-.73-.83a2.25,2.25,0,0,0-1.93,1.7,1.6,1.6,0,0,0,.62,1.63,1.08,1.08,0,0,0,1.5-.07,5.36,5.36,0,0,0,1.1-1.08C741.37,294.8,741.18,294.38,740.27,294.19Z"/><path class="cls-14" d="M749,268.44c.15.55.31,1,.43,1.54.42,1.68-.1,2.51-1.79,2.94a.8.8,0,0,1-1.09-.47c-.17.14-.31.28-.46.4a1.23,1.23,0,0,1-2.14-.54,7.4,7.4,0,0,1-.25-1.82c0-.61,0-1.22,0-2l-.6.8c-.46.63-.88,1.3-1.4,1.88a1.2,1.2,0,0,1-1.93.11c-.76-.69-1.6-1.39-1.56-2.56a3.39,3.39,0,0,1,1.81-2.88c.37-.22.77-.37,1.28-.61a5.56,5.56,0,0,1-3.37-2.32,1.4,1.4,0,0,1,.07-2,1.84,1.84,0,0,1,1.06-.42c.29,0,.41,0,.43-.36a1.59,1.59,0,0,1,1.66-1.69,1.3,1.3,0,0,1,1.2.6c.65,1,1.23,2,1.83,2.92l.36.57.18,0c0-.42,0-.84,0-1.26a3.14,3.14,0,0,1,1.44-2.75c.82-.68,1.78-.45,2.7-.41.19,0,.4.32.54.54a6.25,6.25,0,0,1,.63,4.65c.3-.12.56-.24.83-.32a2,2,0,0,1,2.73,1.93,3.38,3.38,0,0,1-2,3.44,6.31,6.31,0,0,1-1.91.16A4,4,0,0,1,749,268.44Zm-2.43-3.5c.07-.62-.18-.89-.73-.83a2.25,2.25,0,0,0-1.93,1.7,1.62,1.62,0,0,0,.62,1.63,1.1,1.1,0,0,0,1.51-.08,5.53,5.53,0,0,0,1.09-1.07C747.68,265.55,747.49,265.13,746.58,264.94Z"/><path class="cls-14" d="M667.4,305c.16.55.32,1,.44,1.53.41,1.69-.11,2.52-1.79,2.95A.81.81,0,0,1,665,309l-.45.41a1.24,1.24,0,0,1-2.15-.55,7.33,7.33,0,0,1-.25-1.82c0-.6,0-1.22,0-2-.25.33-.43.56-.6.8-.47.63-.89,1.3-1.4,1.88a1.22,1.22,0,0,1-1.94.11c-.76-.69-1.6-1.4-1.55-2.56a3.38,3.38,0,0,1,1.8-2.88c.37-.22.77-.37,1.28-.61a5.56,5.56,0,0,1-3.37-2.32,1.41,1.41,0,0,1,.08-2,1.88,1.88,0,0,1,1.05-.42c.3,0,.42,0,.43-.35a1.61,1.61,0,0,1,1.67-1.7,1.3,1.3,0,0,1,1.2.61c.64.95,1.22,1.94,1.83,2.92.11.19.24.38.36.56l.17,0c0-.42,0-.84,0-1.26a3.12,3.12,0,0,1,1.45-2.75c.82-.67,1.78-.44,2.69-.41.19,0,.41.33.54.54a6.27,6.27,0,0,1,.63,4.66,7.35,7.35,0,0,1,.83-.32,2,2,0,0,1,2.73,1.93,3.36,3.36,0,0,1-2,3.43,6,6,0,0,1-1.91.16A4.08,4.08,0,0,1,667.4,305ZM665,301.46c.07-.61-.18-.88-.72-.82a2.26,2.26,0,0,0-1.94,1.69,1.62,1.62,0,0,0,.62,1.63,1.09,1.09,0,0,0,1.51-.07,5.07,5.07,0,0,0,1.09-1.08C666.08,302.07,665.89,301.65,665,301.46Z"/><path class="cls-14" d="M659.38,231.46c.16.55.32,1,.44,1.54.41,1.69-.1,2.52-1.79,2.95a.8.8,0,0,1-1.09-.48l-.46.41a1.23,1.23,0,0,1-2.14-.55,7.33,7.33,0,0,1-.25-1.82c0-.61,0-1.22,0-2l-.6.8a21.67,21.67,0,0,1-1.4,1.87,1.2,1.2,0,0,1-1.93.11c-.76-.69-1.61-1.39-1.56-2.56a3.4,3.4,0,0,1,1.8-2.87c.37-.22.78-.38,1.28-.61a5.59,5.59,0,0,1-3.37-2.32,1.43,1.43,0,0,1,.08-2,1.88,1.88,0,0,1,1.06-.42c.29,0,.41,0,.43-.35a1.6,1.6,0,0,1,1.66-1.7,1.29,1.29,0,0,1,1.2.61c.64.95,1.22,1.94,1.83,2.92l.36.56.18,0c0-.42,0-.84,0-1.26a3.15,3.15,0,0,1,1.45-2.75c.82-.67,1.78-.44,2.69-.41.19,0,.41.33.55.54a6.22,6.22,0,0,1,.62,4.66,8.28,8.28,0,0,1,.84-.32A2,2,0,0,1,664,228a3.39,3.39,0,0,1-2,3.44,6.31,6.31,0,0,1-1.91.16A3.25,3.25,0,0,1,659.38,231.46ZM657,228c.06-.61-.18-.88-.73-.83a2.26,2.26,0,0,0-1.93,1.7,1.6,1.6,0,0,0,.62,1.63,1.08,1.08,0,0,0,1.5-.07,5.36,5.36,0,0,0,1.1-1.08C658.06,228.57,657.87,228.15,657,228Z"/><path class="cls-14" d="M659.38,269.14c.16.55.32,1,.44,1.54.41,1.69-.1,2.52-1.79,2.95a.8.8,0,0,1-1.09-.48c-.17.15-.31.28-.46.4a1.23,1.23,0,0,1-2.14-.54,7.33,7.33,0,0,1-.25-1.82c0-.61,0-1.22,0-2-.25.32-.42.56-.6.8a23.34,23.34,0,0,1-1.4,1.87,1.2,1.2,0,0,1-1.93.11c-.76-.69-1.61-1.39-1.56-2.56a3.42,3.42,0,0,1,1.8-2.88c.37-.21.78-.37,1.28-.6a5.59,5.59,0,0,1-3.37-2.32,1.42,1.42,0,0,1,.08-2,1.88,1.88,0,0,1,1.06-.42c.29,0,.41,0,.43-.35a1.6,1.6,0,0,1,1.66-1.7,1.29,1.29,0,0,1,1.2.61c.64.95,1.22,1.94,1.83,2.92l.36.56.18,0c0-.42,0-.84,0-1.26a3.15,3.15,0,0,1,1.45-2.75c.82-.67,1.78-.44,2.69-.41.19,0,.41.32.55.54a6.22,6.22,0,0,1,.62,4.66,8.28,8.28,0,0,1,.84-.32,2,2,0,0,1,2.73,1.92,3.39,3.39,0,0,1-2,3.44,6.31,6.31,0,0,1-1.91.16A3.25,3.25,0,0,1,659.38,269.14Zm-2.42-3.5c.06-.61-.18-.88-.73-.83a2.25,2.25,0,0,0-1.93,1.7,1.6,1.6,0,0,0,.62,1.63,1.08,1.08,0,0,0,1.5-.07,5.36,5.36,0,0,0,1.1-1.08C658.06,266.25,657.87,265.83,657,265.64Z"/><path class="cls-24" d="M669.15,485.17a16.36,16.36,0,0,0-.81,5.07h33a16.36,16.36,0,0,0-.8-5.07Z"/><path class="cls-24" d="M703.1,485.17a16.36,16.36,0,0,0-.8,5.07h33a16.36,16.36,0,0,0-.81-5.07Z"/><path class="cls-9" d="M724.51,138.67c-.19-4.15-.9-7.88-2.94-11a22.28,22.28,0,0,0-9.06-7.43,22.24,22.24,0,0,0-21.35,0,22.28,22.28,0,0,0-9.06,7.43c-2,3.13-2.74,6.86-2.94,11s.13,8.71.13,13.49.41-6.81,1.55-13.76,4-12.27,6.89-12.92a30.83,30.83,0,0,1,5.87-3.8c2.45-1.29,5.12.87,8.24.87s5.78-2.16,8.23-.87a30.83,30.83,0,0,1,5.87,3.8c2.89.65,5.75,6,6.89,12.92s1.55,18.55,1.55,13.76S724.7,142.82,724.51,138.67Z"/><rect class="cls-6" x="939.28" y="310.58" width="13.54" height="22.45" rx="4"/><path class="cls-25" d="M952.65,288.31V202.22a5.63,5.63,0,0,0-5.68-5.57h-2.24a5.64,5.64,0,0,0-5.68,5.57V307.75a5.36,5.36,0,0,0,.4,2v3.56h13.6v-25Z"/><rect class="cls-6" x="856.94" y="310.58" width="13.54" height="22.45" rx="4"/><path class="cls-25" d="M870.31,288.31V202.22a5.64,5.64,0,0,0-5.68-5.57h-2.24a5.64,5.64,0,0,0-5.68,5.57V307.75a5.36,5.36,0,0,0,.4,2v3.56h13.6v-25Z"/><polygon class="cls-25" points="900.34 479.76 877.42 479.76 879.42 293.63 899.34 293.63 900.34 479.76"/><polygon class="cls-25" points="932.34 479.76 909.42 479.76 909.42 293.63 929.34 293.63 932.34 479.76"/><rect class="cls-14" x="878.56" y="252.95" width="52.63" height="52.63"/><polygon class="cls-6" points="921.05 192.63 904.06 216.18 888.29 192.63 895.57 192.63 895.57 182.33 904.67 182.33 913.77 182.33 913.77 192.63 921.05 192.63"/><path class="cls-6" d="M927.43,152.62c0,9.09-2.53,17.33-6.61,23.29s-9.71,9.66-15.94,9.66-11.86-3.69-15.94-9.66-6.61-14.2-6.61-23.29-1.27-17.34,2.81-23.3,13.51-9.65,19.74-9.65,15.66,3.68,19.74,9.65S927.43,143.52,927.43,152.62Z"/><path class="cls-6" d="M930.7,157.81a8.44,8.44,0,0,1-2.24,5.8,7.28,7.28,0,0,1-10.82,0,8.6,8.6,0,0,1,0-11.6,7.34,7.34,0,0,1,5.41-2.4c2.11,0,6.55.91,7.94,2.4S930.7,155.55,930.7,157.81Z"/><path class="cls-6" d="M879.06,157.81a8.44,8.44,0,0,0,2.24,5.8,7.28,7.28,0,0,0,10.82,0,8.6,8.6,0,0,0,0-11.6,7.34,7.34,0,0,0-5.41-2.4c-2.11,0-6.55.91-7.94,2.4S879.06,155.55,879.06,157.81Z"/><circle class="cls-5" cx="895.78" cy="153.9" r="2.33"/><circle class="cls-5" cx="913.97" cy="153.9" r="2.33"/><line class="cls-10" x1="896.94" y1="135.09" x2="912.82" y2="135.09"/><line class="cls-10" x1="898.88" y1="138.55" x2="910.88" y2="138.55"/><path class="cls-11" d="M892.21,148.77a4,4,0,0,1,6.4-1.05,3.7,3.7,0,0,1,.74,1.05h1.1a5,5,0,0,0-1.13-1.76,5,5,0,0,0-7.07,0,5,5,0,0,0-1.13,1.76Z"/><path class="cls-11" d="M910.4,148.77a4,4,0,0,1,6.4-1.05,3.7,3.7,0,0,1,.74,1.05h1.1a5,5,0,0,0-1.13-1.76,5,5,0,0,0-7.07,0,5,5,0,0,0-1.13,1.76Z"/><rect class="cls-12" x="899.88" y="168.59" width="10" height="2.3" rx="1.15"/><path class="cls-11" d="M913.44,178.31c-4.67,5.09-2.94-3.44-8.05-4.45v-.09l-.51,0-.51,0v.09c-5.11,1-3.38,9.54-8,4.45-12.18-6-14.11-38.62-14.11-28.82s2.58,18.67,6.76,25.1c4,6.14,9.45,10,15.49,10.36v0h.84v0c6-.33,11.5-4.22,15.49-10.36,4.18-6.43,6.76-15.3,6.76-25.1S925.62,172.3,913.44,178.31Z"/><path class="cls-26" d="M905.34,490.45a16.52,16.52,0,0,1,33,0"/><path class="cls-26" d="M904.42,490.45a16.52,16.52,0,0,0-33,0"/><path class="cls-9" d="M927.55,140.42c-.19-4.15-.89-7.88-2.93-11a22.31,22.31,0,0,0-9.07-7.42,22.22,22.22,0,0,0-21.34,0,22.31,22.31,0,0,0-9.07,7.42c-2,3.14-2.74,6.87-2.93,11s.12,8.7.12,13.49.42-6.81,1.56-13.77,4-13.27,6.88-13.92a30.78,30.78,0,0,1,5.87-3.79c2.45-1.29,5.13.86,8.24.86s5.79-2.15,8.24-.86a30.78,30.78,0,0,1,5.87,3.79c2.88.65,5.74,7,6.88,13.92s1.56,18.55,1.56,13.77S927.74,144.56,927.55,140.42Z"/><polygon class="cls-14" points="905.34 308.46 887.23 308.46 887.23 192.5 904.44 206.34 905.34 308.46"/><polygon class="cls-14" points="904.71 308.46 922.82 308.46 922.82 192.5 905.61 206.34 904.71 308.46"/><polygon class="cls-14" points="904.63 308.46 922.75 308.46 922.75 192.5 905.53 206.34 904.63 308.46"/><polygon class="cls-27" points="911.66 251.5 904.92 259.76 898.1 251.58 899.8 231.8 902.6 211.97 904.67 212.01 907.64 212.03 909.74 231.75 911.66 251.5"/><polygon class="cls-28" points="907.95 210.79 901.81 210.79 898.88 201.05 910.88 201.05 907.95 210.79"/><polygon class="cls-29" points="904.09 197.54 893.81 186.58 887.97 192.07 902.36 207.4 904.09 197.54"/><polygon class="cls-29" points="905.67 197.54 915.95 186.58 921.79 192.07 907.4 207.4 905.67 197.54"/><polygon class="cls-25" points="930.17 315.58 880.17 315.58 879.17 295.58 929.17 295.58 930.17 315.58"/><polygon class="cls-25" points="900.55 298.35 887.55 324.01 874.55 324.01 874.55 258.4 874.55 197.78 887.58 192.5 900.55 258.4 900.55 298.35"/><polygon class="cls-25" points="909.21 298.35 922.21 324.01 935.21 324.01 935.21 258.4 935.21 197.78 922.17 192.5 909.21 258.4 909.21 298.35"/><path class="cls-30" d="M1136.38,142.21c0,5.7-12.54,10.31-28,10.31s-28-4.61-28-10.31"/><ellipse class="cls-31" cx="1108.37" cy="186.44" rx="20.64" ry="8.06"/><polygon class="cls-2" points="1104.04 478.22 1081.12 478.22 1083.12 292.1 1103.04 292.1 1104.04 478.22"/><polygon class="cls-2" points="1136.04 478.22 1113.12 478.22 1113.12 292.1 1133.04 292.1 1136.04 478.22"/><rect class="cls-14" x="1082.27" y="251.41" width="52.63" height="52.63"/><polygon class="cls-6" points="1124.75 191.1 1107.77 214.64 1092 191.1 1099.28 191.1 1099.28 180.8 1108.37 180.8 1117.47 180.8 1117.47 191.1 1124.75 191.1"/><rect class="cls-6" x="1060.19" y="309.05" width="13.54" height="22.45" rx="4"/><rect class="cls-6" x="1142.54" y="309.05" width="13.54" height="22.45" rx="4"/><path class="cls-31" d="M1155.91,286.78v-86.1a5.65,5.65,0,0,0-5.69-5.57H1148a5.65,5.65,0,0,0-5.69,5.57V306.21a5.32,5.32,0,0,0,.4,2v3.57h13.6v-25Z"/><path class="cls-31" d="M1073.56,286.78v-86.1a5.64,5.64,0,0,0-5.68-5.57h-2.24a5.65,5.65,0,0,0-5.68,5.57V306.21a5.32,5.32,0,0,0,.4,2v3.57H1074v-25Z"/><path class="cls-6" d="M1130.92,149.37c0,9.57-2.52,18.23-6.6,24.51s-9.72,10.15-16,10.15-11.86-3.88-15.94-10.15-6.6-14.94-6.6-24.51-1.27-18.23,2.81-24.51,13.51-10.15,19.73-10.15,15.66,3.88,19.74,10.15S1130.92,139.8,1130.92,149.37Z"/><path class="cls-6" d="M1134.2,154.84a9.21,9.21,0,0,1-2.24,6.1,7.08,7.08,0,0,1-10.83,0,9.44,9.44,0,0,1,0-12.21,7.22,7.22,0,0,1,5.41-2.52c2.12,0,6.56,1,7.94,2.52S1134.2,152.45,1134.2,154.84Z"/><path class="cls-6" d="M1082.55,154.84a9.21,9.21,0,0,0,2.24,6.1,7.08,7.08,0,0,0,10.83,0,9.44,9.44,0,0,0,0-12.21,7.23,7.23,0,0,0-5.41-2.52c-2.12,0-6.56,1-8,2.52S1082.55,152.45,1082.55,154.84Z"/><circle class="cls-5" cx="1099.28" cy="152.37" r="2.33"/><circle class="cls-5" cx="1117.47" cy="152.37" r="2.33"/><line class="cls-10" x1="1100.43" y1="133.56" x2="1116.31" y2="133.56"/><line class="cls-10" x1="1102.37" y1="137.01" x2="1114.37" y2="137.01"/><path class="cls-11" d="M1095.71,147.24a4,4,0,0,1,6.4-1.06,4.2,4.2,0,0,1,.74,1.06h1.09a4.92,4.92,0,0,0-1.13-1.77,5,5,0,0,0-7.07,0,5,5,0,0,0-1.12,1.77Z"/><path class="cls-11" d="M1113.9,147.24a4,4,0,0,1,6.4-1.06,4.2,4.2,0,0,1,.74,1.06h1.09a4.92,4.92,0,0,0-1.13-1.77,5,5,0,0,0-7.07,0,5,5,0,0,0-1.12,1.77Z"/><rect class="cls-12" x="1103.37" y="167.06" width="10" height="2.3" rx="1.15"/><path class="cls-11" d="M1116.94,176.77c-4.68,5.1-2.94-3.44-8.06-4.44v-.1l-.52,0-.51,0v.1c-5.11,1-3.38,9.54-8,4.44-12.17-6-14.11-38.62-14.11-28.82s2.58,18.68,6.76,25.1c4,6.14,9.45,10,15.5,10.36v0h.83v0c6-.33,11.5-4.22,15.49-10.36,4.18-6.42,6.77-15.3,6.77-25.1S1129.11,170.77,1116.94,176.77Z"/><path class="cls-8" d="M1109.05,488.91a16.51,16.51,0,0,1,33,0"/><path class="cls-8" d="M1108.12,488.91a16.52,16.52,0,0,0-33,0"/><polygon class="cls-31" points="1108.12 354.59 1078.52 357.32 1078.03 330.42 1078.03 277.26 1078.03 194.42 1095.5 187.58 1095.5 187.58 1110.12 199.74 1108.12 354.59"/><path class="cls-7" d="M1075.89,485.38a16.66,16.66,0,0,0-.8,5.07h33a16.66,16.66,0,0,0-.8-5.07Z"/><path class="cls-7" d="M1109.85,485.38a16.36,16.36,0,0,0-.8,5.07h33a16.36,16.36,0,0,0-.8-5.07Z"/><polygon class="cls-31" points="1109.5 354.59 1139.1 357.32 1139.59 330.42 1139.59 277.26 1139.59 194.42 1122.12 187.58 1122.12 187.58 1107.5 199.74 1109.5 354.59"/><rect class="cls-30" x="1103.37" y="194.12" width="10" height="160"/><circle class="cls-32" cx="1108.61" cy="222.06" r="2.89"/><circle class="cls-32" cx="1108.61" cy="249.41" r="2.89"/><circle class="cls-32" cx="1108.14" cy="276.77" r="2.89"/><circle class="cls-32" cx="1108.61" cy="304.13" r="2.89"/><circle class="cls-32" cx="1108.61" cy="331.49" r="2.89"/><polygon class="cls-31" points="1104.32 198.19 1092.3 195.93 1095.05 180.02 1111.59 195.93 1104.32 198.19"/><polygon class="cls-31" points="1112.42 198.19 1124.45 195.93 1121.7 180.02 1105.15 195.93 1112.42 198.19"/><rect class="cls-30" x="1116.71" y="211.88" width="20" height="20"/><rect class="cls-30" x="1080.61" y="211.88" width="20" height="20"/><polygon class="cls-30" points="1100.61 219.72 1090.61 222.72 1080.61 219.72 1080.61 217.72 1080.61 212.72 1090.61 212.72 1100.61 212.72 1100.61 217.72 1100.61 219.72"/><polygon class="cls-30" points="1136.71 219.72 1126.71 222.72 1116.71 219.72 1116.71 217.72 1116.71 212.72 1126.71 212.72 1136.71 212.72 1136.71 217.72 1136.71 219.72"/><polygon class="cls-30" points="1132.37 136.89 1108.37 136.89 1084.37 136.89 1087.87 126.89 1090.37 116.89 1108.37 114.89 1126.37 116.89 1128.87 126.89 1132.37 136.89"/><circle class="cls-33" cx="1096.9" cy="152.37" r="9"/><circle class="cls-33" cx="1119.84" cy="152.37" r="9"/><rect class="cls-32" x="1105.43" y="147.05" width="6" height="2"/><path class="cls-5" d="M1098.78,192.16c-4.69,3.8-7.07,11.25-2,15.69,1.44,1.25,2.86,2.35,3.51,4.21a7.74,7.74,0,0,1,0,5.16c-.8,2.21-4.79,5.52-2.14,7.83.73.63,1.79-.42,1.06-1.06-1.29-1.12.78-3.33,1.46-4.32a8.57,8.57,0,0,0,1.47-3.77,8.93,8.93,0,0,0-2.5-7.56c-1.13-1.11-2.54-1.94-3.38-3.3a6.6,6.6,0,0,1-.86-4.24,11.7,11.7,0,0,1,4.41-7.58c.75-.6-.32-1.66-1.06-1.06Z"/><path class="cls-5" d="M1118.46,193.54c-.78,5.25,4.06,8.55,5.54,13.11,2.21,6.81-9,7.11-8.73,13.5a6.66,6.66,0,0,0,1.67,3.67c.87,1.14,2.29,2.48,2,4.06-.15.94,1.3,1.35,1.44.4.42-2.69-1.74-4.28-3-6.36-2.15-3.54,1.93-5.87,4.44-7.56,2.16-1.47,4.08-3.45,3.94-6.25-.12-2.35-1.5-4.43-2.75-6.33-1.51-2.28-3.57-4.93-3.14-7.84.14-.94-1.3-1.35-1.45-.4Z"/><path class="cls-30" d="M1080.36,142.62c0-2.84,3.14-5.42,8.21-7.29a66.45,66.45,0,0,1,39.61,0c5.07,1.87,8.2,4.45,8.2,7.29"/><path class="cls-6" d="M1131.31,143c0-2.19-10.17-4-22.7-4s-22.71,1.78-22.71,4"/></svg>