<svg id="Layer_1" data-name="Layer 1" xmlns="http://www.w3.org/2000/svg" xmlns:xlink="http://www.w3.org/1999/xlink" viewBox="0 0 800 600"><defs><style>.cls-1,.cls-9{fill:none;}.cls-2{fill:#00758f;}.cls-3{fill:#b89b72;}.cls-4{fill:#feffff;}.cls-5{fill:#798ea4;}.cls-16,.cls-6{fill:#fff;}.cls-12,.cls-7{fill:#f9e8d4;}.cls-11,.cls-8{fill:#e8a798;}.cls-9{stroke:#e0d0be;}.cls-11,.cls-12,.cls-16,.cls-9{stroke-miterlimit:10;}.cls-10,.cls-13{fill:#584f49;}.cls-10{opacity:0.6;}.cls-11{stroke:#e8a798;}.cls-12{stroke:#fff;}.cls-14{fill:url(#New_Pattern_Swatch_5);}.cls-15{fill:url(#New_Pattern_Swatch_5-3);}.cls-16{stroke:#e6e7e8;stroke-width:0.25px;}</style><pattern id="New_Pattern_Swatch_5" data-name="New Pattern Swatch 5" width="50" height="50" patternTransform="translate(-101.77 40.74) rotate(-46.59) scale(1.24)" patternUnits="userSpaceOnUse" viewBox="0 0 50 50"><rect class="cls-1" width="50" height="50"/><rect class="cls-2" width="50" height="5.02"/><rect class="cls-3" y="11.13" width="50" height="2.51"/><rect class="cls-4" y="5.16" width="50" height="2.51"/><rect class="cls-5" y="7.4" width="50" height="3.76"/><rect class="cls-3" y="14.67" width="50" height="2.51"/><rect class="cls-5" y="17.26" width="50" height="3.76"/><rect class="cls-5" y="13.53" width="50" height="1.25"/><rect class="cls-2" y="21.02" width="50" height="5.02"/><rect class="cls-4" y="26.18" width="50" height="2.51"/><rect class="cls-3" y="32.45" width="50" height="2.51"/><rect class="cls-4" y="26.47" width="50" height="2.51"/><rect class="cls-5" y="28.71" width="50" height="3.76"/><rect class="cls-3" y="35.98" width="50" height="2.51"/><rect class="cls-5" y="38.57" width="50" height="3.76"/><rect class="cls-5" y="34.84" width="50" height="1.25"/><rect class="cls-2" y="42.33" width="50" height="5.02"/><rect class="cls-4" y="47.49" width="50" height="2.51"/></pattern><pattern id="New_Pattern_Swatch_5-3" data-name="New Pattern Swatch 5" width="50" height="50" patternTransform="matrix(0.87, -0.42, 0.32, 1.16, -3.53, -1.98)" patternUnits="userSpaceOnUse" viewBox="0 0 50 50"><rect class="cls-1" width="50" height="50"/><rect class="cls-2" width="50" height="5.02"/><rect class="cls-3" y="11.13" width="50" height="2.51"/><rect class="cls-4" y="5.16" width="50" height="2.51"/><rect class="cls-5" y="7.4" width="50" height="3.76"/><rect class="cls-3" y="14.67" width="50" height="2.51"/><rect class="cls-5" y="17.26" width="50" height="3.76"/><rect class="cls-5" y="13.53" width="50" height="1.25"/><rect class="cls-2" y="21.02" width="50" height="5.02"/><rect class="cls-4" y="26.18" width="50" height="2.51"/><rect class="cls-3" y="32.45" width="50" height="2.51"/><rect class="cls-4" y="26.47" width="50" height="2.51"/><rect class="cls-5" y="28.71" width="50" height="3.76"/><rect class="cls-3" y="35.98" width="50" height="2.51"/><rect class="cls-5" y="38.57" width="50" height="3.76"/><rect class="cls-5" y="34.84" width="50" height="1.25"/><rect class="cls-2" y="42.33" width="50" height="5.02"/><rect class="cls-4" y="47.49" width="50" height="2.51"/></pattern></defs><title>swimming</title><rect class="cls-6" width="800" height="600"/><rect class="cls-7" x="442.63" y="316.27" width="16.77" height="27.82" rx="4"/><path class="cls-8" d="M459.2,288.68V182a7,7,0,0,0-7-6.9h-2.77a7,7,0,0,0-7,6.9V312.76a6.64,6.64,0,0,0,.49,2.48v4.42h16.85v-31Z"/><rect class="cls-7" x="340.59" y="316.27" width="16.77" height="27.82" rx="4"/><path class="cls-8" d="M357.16,288.68V182a7,7,0,0,0-7-6.9h-2.77a7,7,0,0,0-7,6.9V312.76a6.64,6.64,0,0,0,.49,2.48v4.42h16.85v-31Z"/><polygon class="cls-8" points="394.37 525.92 365.97 525.92 368.45 295.27 393.13 295.27 394.37 525.92"/><polygon class="cls-8" points="434.03 525.92 405.63 525.92 405.63 295.27 430.31 295.27 434.03 525.92"/><rect class="cls-6" x="367.39" y="244.85" width="65.22" height="65.22"/><polygon class="cls-7" points="420.04 170.11 398.99 199.29 379.45 170.11 388.47 170.11 388.47 157.34 399.74 157.34 411.02 157.34 411.02 170.11 420.04 170.11"/><path class="cls-7" d="M427.94,120.51c0,11.28-3.13,21.49-8.18,28.88s-12,12-19.76,12-14.7-4.57-19.76-12-8.18-17.6-8.18-28.88S370.49,99,375.54,91.64s16.74-12,24.46-12,19.4,4.57,24.46,12S427.94,109.24,427.94,120.51Z"/><path class="cls-7" d="M432,127a10.5,10.5,0,0,1-2.78,7.19,9,9,0,0,1-13.41,0,10.69,10.69,0,0,1,0-14.38,9.13,9.13,0,0,1,6.7-3c2.62,0,8.13,1.13,9.85,3S432,124.15,432,127Z"/><path class="cls-7" d="M368,127a10.5,10.5,0,0,0,2.78,7.19,9,9,0,0,0,13.41,0,10.69,10.69,0,0,0,0-14.38,9.13,9.13,0,0,0-6.7-3c-2.62,0-8.13,1.13-9.85,3S368,124.15,368,127Z"/><circle class="cls-5" cx="388.73" cy="122.11" r="2.89"/><circle class="cls-5" cx="411.27" cy="122.11" r="2.89"/><line class="cls-9" x1="390.16" y1="98.8" x2="409.84" y2="98.8"/><line class="cls-9" x1="392.56" y1="103.08" x2="407.44" y2="103.08"/><path class="cls-10" d="M384.31,115.76a5.09,5.09,0,0,1,.91-1.32,5,5,0,0,1,7,0,4.89,4.89,0,0,1,.92,1.32h1.36a6.27,6.27,0,0,0-1.4-2.19A6.17,6.17,0,0,0,383,115.76Z"/><path class="cls-10" d="M406.85,115.76a4.89,4.89,0,0,1,.92-1.32,5,5,0,0,1,7,0,5.09,5.09,0,0,1,.91,1.32h1.36a6.17,6.17,0,0,0-10.16-2.19,6.27,6.27,0,0,0-1.4,2.19Z"/><rect class="cls-11" x="393.8" y="140.32" width="12.39" height="2.86" rx="1.15"/><path class="cls-10" d="M410.61,152.36c-5.79,6.31-3.64-4.26-10-5.51v-.13a5,5,0,0,1-1.26,0v.13c-6.34,1.25-4.19,11.82-10,5.51-15.09-7.45-17.49-47.86-17.49-35.72s3.2,23.14,8.38,31.1c5,7.61,11.71,12.43,19.2,12.84v0l.52,0,.52,0v0c7.49-.41,14.25-5.23,19.2-12.84,5.18-8,8.38-19,8.38-31.1S425.7,144.91,410.61,152.36Z"/><path class="cls-12" d="M400.57,539.17a20.47,20.47,0,1,1,40.93,0"/><path class="cls-12" d="M399.43,539.17a20.47,20.47,0,1,0-40.93,0"/><path class="cls-13" d="M428.1,105.4c-.24-5.14-1.11-9.77-3.64-13.65s-6.72-7-11.23-9.21a27.65,27.65,0,0,0-26.46,0c-4.51,2.18-8.7,5.32-11.23,9.21s-3.4,8.51-3.64,13.65.16,10.79.16,16.72.52-8.44,1.93-17.06,4.95-16.45,8.53-17.25a38.07,38.07,0,0,1,7.27-4.7c3-1.6,6.35,1.07,10.21,1.07s7.17-2.67,10.21-1.07a37.76,37.76,0,0,1,7.27,4.7c3.58.8,7.12,8.63,8.53,17.25s1.93,23,1.93,17.06S428.34,110.54,428.1,105.4Z"/><polygon class="cls-6" points="400.57 313.64 378.13 313.64 378.13 169.94 399.46 187.09 400.57 313.64"/><polygon class="cls-6" points="399.79 313.64 422.24 313.64 422.24 169.94 400.9 187.09 399.79 313.64"/><polygon class="cls-6" points="399.69 313.64 422.14 313.64 422.14 169.94 400.81 187.09 399.69 313.64"/><polygon class="cls-14" points="408.4 243.06 400.06 253.28 391.6 243.15 393.71 218.64 397.18 194.07 399.74 194.11 403.42 194.15 406.03 218.58 408.4 243.06"/><polygon class="cls-15" points="403.81 192.61 396.19 192.61 392.56 180.54 407.44 180.54 403.81 192.61"/><polygon class="cls-16" points="399.02 176.18 386.28 162.61 379.04 169.4 396.88 188.41 399.02 176.18"/><polygon class="cls-16" points="400.98 176.18 413.72 162.61 420.96 169.4 403.12 188.41 400.98 176.18"/><polygon class="cls-8" points="431.34 322.46 369.38 322.46 368.14 297.68 430.1 297.68 431.34 322.46"/><polygon class="cls-8" points="394.63 301.12 378.52 332.91 362.41 332.91 362.41 251.6 362.41 176.49 378.57 169.94 394.63 251.6 394.63 301.12"/><polygon class="cls-8" points="405.37 301.12 421.48 332.91 437.59 332.91 437.59 251.6 437.59 176.49 421.43 169.94 405.37 251.6 405.37 301.12"/></svg>