<svg id="Layer_1" data-name="Layer 1" xmlns="http://www.w3.org/2000/svg" viewBox="0 0 800 600"><defs><style>.cls-1{fill:#fff;}.cls-16,.cls-2{fill:#282d3c;}.cls-3{fill:#cd212a;}.cls-4{fill:#f9e8d4;}.cls-5,.cls-8{fill:#584f49;}.cls-10,.cls-11,.cls-12,.cls-14,.cls-15,.cls-6{fill:none;}.cls-6{stroke:#e0d0be;}.cls-10,.cls-11,.cls-12,.cls-14,.cls-15,.cls-16,.cls-6,.cls-9{stroke-miterlimit:10;}.cls-7{fill:#798ea4;}.cls-8{opacity:0.6;}.cls-9{fill:#e8a798;stroke:#e8a798;}.cls-10,.cls-11,.cls-12,.cls-14,.cls-15{stroke:#b89b72;stroke-width:2px;}.cls-11{stroke-dasharray:1.01 1.01 1.01 0;}.cls-12{stroke-dasharray:1.01 1.01 1.01 1.01 1.01 0;}.cls-13{fill:#b89b72;}.cls-14{stroke-dasharray:1 1 1 0;}.cls-15{stroke-dasharray:1 1 1 1 1 0;}.cls-16{stroke:#fff;}</style></defs><title>watchingmovies</title><rect class="cls-1" width="800" height="600"/><polygon class="cls-2" points="433.75 525.96 405.58 525.96 405.58 297.19 430.06 297.19 433.75 525.96"/><polygon class="cls-2" points="394.42 525.96 366.25 525.96 368.71 297.19 393.19 297.19 394.42 525.96"/><polygon class="cls-2" points="429.8 321.41 368.34 321.41 367.11 296.83 428.57 296.83 429.8 321.41"/><path class="cls-1" d="M405.23,204.94h-.58a.55.55,0,0,0-.08-.2.64.64,0,0,0-.62,0,.18.18,0,0,0-.06.15q0,.13.36.21t.6.15l.08,0a.55.55,0,0,1,.37.53.66.66,0,0,1-.36.63l-.09,0a1.33,1.33,0,0,1-.54.1,1.41,1.41,0,0,1-.73-.16.68.68,0,0,1-.27-.26.68.68,0,0,1-.08-.36h.6a.29.29,0,0,0,.12.25.69.69,0,0,0,.38.08.45.45,0,0,0,.3-.08.19.19,0,0,0,.07-.15c0-.09-.12-.17-.36-.22a5.13,5.13,0,0,1-.67-.18.57.57,0,0,1-.36-.54.69.69,0,0,1,.19-.5.94.94,0,0,1,.72-.25,1.42,1.42,0,0,1,.63.11l0,0a.63.63,0,0,1,.26.25A.8.8,0,0,1,405.23,204.94Z"/><path class="cls-1" d="M404.92,203.52a0,0,0,0,0,0,0s0,0,0,0h-.13v.11h.09l0,0A.05.05,0,0,0,404.92,203.52Zm.05-.06a.14.14,0,0,1,0,.06.11.11,0,0,1,0,.07.11.11,0,0,1-.08,0l0,0,.06.08,0,.07h-.07l0-.06,0-.08h-.09v.16h-.06v-.38h.22A.05.05,0,0,1,405,203.46Z"/><path class="cls-1" d="M405.14,203.6a.28.28,0,0,0,0-.15.29.29,0,0,0-.11-.11.32.32,0,0,0-.14,0h0a.32.32,0,0,0-.14,0,.29.29,0,0,0-.11.11.28.28,0,0,0,0,.15.23.23,0,0,0,0,.14.27.27,0,0,0,.1.11.28.28,0,0,0,.15,0h0a.28.28,0,0,0,.15,0,.27.27,0,0,0,.1-.11A.23.23,0,0,0,405.14,203.6Zm.06,0a.34.34,0,0,1-.05.17.27.27,0,0,1-.13.13.34.34,0,0,1-.17,0h0a.34.34,0,0,1-.17,0,.27.27,0,0,1-.13-.13.34.34,0,0,1-.05-.17.41.41,0,0,1,.05-.18.33.33,0,0,1,.13-.13.33.33,0,0,1,.17,0h0a.35.35,0,0,1,.17,0,.33.33,0,0,1,.13.13A.41.41,0,0,1,405.2,203.6Z"/><polygon class="cls-1" points="401.78 200.76 403.43 203.51 401.78 203.51 400.79 203.51 399.21 200.89 398.02 198.9 399.21 198.18 399.96 197.73 401.78 200.76"/><path class="cls-1" d="M403,205.41v1.13h-.55v-.12a1.15,1.15,0,0,1-.64.19h0a1.2,1.2,0,0,1,0-2.39h0a1.15,1.15,0,0,1,.64.19v-.13H403Zm-.55.13v-.25a.65.65,0,0,0-.64-.53h0a.66.66,0,0,0,0,1.31h0A.65.65,0,0,0,402.43,205.54Z"/><path class="cls-1" d="M400.41,205.41v1.13h-.55v-.12a1.2,1.2,0,0,1-.64.19h0a1.2,1.2,0,0,1,0-2.39h0a1.2,1.2,0,0,1,.64.19v-.9h.55Zm-.55.13v-.25a.66.66,0,0,0-.64-.53h0a.66.66,0,0,0,0,1.31h0A.66.66,0,0,0,399.86,205.54Z"/><polygon class="cls-1" points="399.21 202.43 399.86 203.51 399.21 203.51 397.21 203.51 395.74 201.06 395.68 200.96 395.74 200.92 397.62 199.79 399.21 202.43"/><rect class="cls-1" x="397.21" y="204.22" width="0.6" height="2.32"/><rect class="cls-1" x="397.21" y="203.52" width="0.6" height="0.52"/><path class="cls-1" d="M396.94,205.41v1.13h-.55v-.12a1.15,1.15,0,0,1-.64.19h0a1.2,1.2,0,0,1,0-2.39h0a1.15,1.15,0,0,1,.64.19v-.9h.55Zm-.55.13v-.25a.65.65,0,0,0-.64-.53h0a.66.66,0,0,0,0,1.31h0A.65.65,0,0,0,396.39,205.54Z"/><polygon class="cls-1" points="395.74 202.6 396.29 203.51 395.74 203.51 393.64 203.51 393.34 203.01 395.29 201.84 395.74 202.6"/><path class="cls-1" d="M394.34,205.41v1.13h-.55v-.12a1.15,1.15,0,0,1-.64.19h0a1.2,1.2,0,0,1,0-2.39h0a1.15,1.15,0,0,1,.64.19v-.13h.55Zm-.55.13v-.25a.65.65,0,0,0-.64-.53h0a.66.66,0,0,0,0,1.31h0A.65.65,0,0,0,393.79,205.54Z"/><ellipse class="cls-3" cx="398.45" cy="169.27" rx="25.37" ry="9.9"/><polygon class="cls-4" points="419.89 169 399.01 188.66 379.63 169 388.58 169 388.58 160.39 399.76 160.39 410.94 160.39 410.94 169 419.89 169"/><rect class="cls-4" x="341.08" y="318.03" width="16.64" height="27.59" rx="4"/><rect class="cls-4" x="442.29" y="318.03" width="16.64" height="27.59" rx="4"/><polygon class="cls-3" points="403.8 173 412.21 164.04 417.59 169.08 405.81 181.63 403.8 173"/><polygon class="cls-3" points="395.47 173 387.06 164.04 381.68 169.08 393.46 181.63 395.47 173"/><path class="cls-1" d="M430,179.27l.22,3.49.73-2.57a.84.84,0,0,1,1.25-.44.83.83,0,0,1,.27.44l.75,2.57.21-3.49h-.17a.69.69,0,0,1-.51-.16.86.86,0,0,1,0-1,.88.88,0,0,1,.58-.15h1.44a.85.85,0,0,1,.57.15.66.66,0,0,1,.17.51.65.65,0,0,1-.16.48.61.61,0,0,1-.48.17h-.1l-.58,5.25a.72.72,0,0,1-.12.4c-.05.07-.19.1-.41.1h-.28a.55.55,0,0,1-.37-.1,1,1,0,0,1-.23-.47l-1.09-3.54-1.05,3.54a1,1,0,0,1-.22.47.61.61,0,0,1-.37.1h-.28c-.21,0-.35,0-.41-.1a.71.71,0,0,1-.11-.4l-.59-5.25h-.1a.61.61,0,0,1-.48-.17.65.65,0,0,1-.17-.48.66.66,0,0,1,.17-.51.9.9,0,0,1,.58-.15h1.44a.85.85,0,0,1,.57.15.66.66,0,0,1,.17.51.62.62,0,0,1-.17.49.69.69,0,0,1-.51.16Z"/><path class="cls-4" d="M427.71,121.77c0,11.76-3.1,22.41-8.11,30.12s-12,12.47-19.6,12.47-14.58-4.76-19.6-12.47-8.11-18.36-8.11-30.12-1.56-22.42,3.45-30.12S392.35,79.17,400,79.17s19.24,4.77,24.26,12.48S427.71,110,427.71,121.77Z"/><path class="cls-4" d="M431.74,128.48A11.25,11.25,0,0,1,429,136a8.66,8.66,0,0,1-13.3,0,11.57,11.57,0,0,1,0-15,8.86,8.86,0,0,1,6.65-3.1c2.6,0,8.06,1.18,9.76,3.1S431.74,125.55,431.74,128.48Z"/><path class="cls-4" d="M368.26,128.48A11.25,11.25,0,0,0,371,136a8.66,8.66,0,0,0,13.3,0,11.57,11.57,0,0,0,0-15,8.86,8.86,0,0,0-6.65-3.1c-2.6,0-8.06,1.18-9.76,3.1S368.26,125.55,368.26,128.48Z"/><path class="cls-5" d="M430.64,99.48a101.74,101.74,0,0,1-.05,10.58c-.37,3.9-1.43,7.58-4.19,9.25-5-9.81.26-17.91-4.63-22.32s-19.94-6.37-24.15-6.37-17.08,2.17-20.39,6.76,3,12.83-4.36,22.47c-2.76-1.67-3.54-5.49-3.63-9.52s.52-8.29.52-10.85a12.52,12.52,0,0,1,2.39-7.2,21.42,21.42,0,0,1,6.52-5.89,57.07,57.07,0,0,1,9.68-4.81,31.65,31.65,0,0,1,23.69,0,56.69,56.69,0,0,1,9.68,4.81,21.42,21.42,0,0,1,6.52,5.89A12.53,12.53,0,0,1,430.64,99.48Z"/><line class="cls-6" x1="390.24" y1="102.33" x2="409.76" y2="102.33"/><line class="cls-6" x1="392.77" y1="106.57" x2="407.52" y2="106.57"/><circle class="cls-7" cx="388.82" cy="125.45" r="2.87"/><circle class="cls-7" cx="411.18" cy="125.45" r="2.87"/><path class="cls-8" d="M384.43,119.14a5.15,5.15,0,0,1,.91-1.3,4.92,4.92,0,0,1,7,0,5.15,5.15,0,0,1,.91,1.3h1.34a6.07,6.07,0,0,0-5.73-4,6.11,6.11,0,0,0-4.34,1.8,6.21,6.21,0,0,0-1.39,2.17Z"/><path class="cls-8" d="M406.79,119.14a5.15,5.15,0,0,1,.91-1.3,4.92,4.92,0,0,1,7,0,5.15,5.15,0,0,1,.91,1.3h1.34a6.21,6.21,0,0,0-1.39-2.17,6.14,6.14,0,0,0-8.69,0,6.18,6.18,0,0,0-1.38,2.17Z"/><rect class="cls-9" x="393.85" y="143.5" width="12.29" height="2.83" rx="1.15"/><path class="cls-8" d="M410.52,155.45c-5.74,6.26-3.61-4.23-9.89-5.47v-.12q-.33,0-.63,0t-.63,0V150c-6.28,1.24-4.15,11.73-9.89,5.47-15-7.39-17.35-47.47-17.35-35.42s3.18,22.95,8.31,30.84c4.91,7.55,11.62,12.33,19.05,12.74v0l.51,0,.51,0v0c7.43-.41,14.14-5.19,19.05-12.74,5.13-7.89,8.31-18.8,8.31-30.84S425.49,148.06,410.52,155.45Z"/><polygon class="cls-3" points="399.07 306.66 416.67 330.03 429.8 296.83 438.25 249.38 438.25 174.88 416.67 168.74 416.67 168.74 399.07 188.66 399.07 306.66"/><polygon class="cls-3" points="399.07 306.66 383.49 330.03 368.34 296.83 361.91 249.38 361.91 174.88 383.49 168.74 383.49 168.74 399.07 188.66 399.07 306.66"/><rect class="cls-3" x="361.91" y="244.72" width="76.33" height="85.31"/><path class="cls-1" d="M390.42,235.06a6.81,6.81,0,0,1,5.31,7,8,8,0,0,1-2.67,6.19,10,10,0,0,1-6.94,2.41,13.06,13.06,0,0,1-5.84-1.26c-1.71-.85-2.56-1.77-2.56-2.78a1.38,1.38,0,0,1,.46-1.07,1.64,1.64,0,0,1,1.14-.42,13.22,13.22,0,0,1,2.67,1.1,9.88,9.88,0,0,0,4.28,1.1,5.94,5.94,0,0,0,4.18-1.47,5.3,5.3,0,0,0,.5-7.05,5.05,5.05,0,0,0-3.06-1.69,13.51,13.51,0,0,0-1.53-.18c-1.21-.07-1.81-.57-1.81-1.51s.59-1.34,1.77-1.49a10.72,10.72,0,0,0,1.14-.15,4.49,4.49,0,0,0,2.72-1.38,3.88,3.88,0,0,0,1-2.72,4.6,4.6,0,0,0-1.27-3.35,4.33,4.33,0,0,0-3.24-1.3,7.34,7.34,0,0,0-3.73,1.13,7.9,7.9,0,0,1-2.39,1.12,1.36,1.36,0,0,1-1-.39,1.28,1.28,0,0,1-.4-1c0-.88.8-1.76,2.42-2.63A11.09,11.09,0,0,1,387,222a8,8,0,0,1,5.61,2,6.53,6.53,0,0,1,2.24,5,6.22,6.22,0,0,1-1.07,3.74A6.92,6.92,0,0,1,390.42,235.06Z"/><path class="cls-1" d="M418.52,236.87A8.07,8.07,0,0,1,416,239.1a6.52,6.52,0,0,1-3.09.73,7.63,7.63,0,0,1-5.8-2.56,8.89,8.89,0,0,1-2.38-6.3,9.25,9.25,0,0,1,2.3-6.47,7.57,7.57,0,0,1,5.88-2.53,8.17,8.17,0,0,1,6.83,3.4c1.73,2.27,2.59,5.27,2.59,9q0,7.41-3.79,11.82a12.68,12.68,0,0,1-10.14,4.42,7.63,7.63,0,0,1-2.67-.3,1.13,1.13,0,0,1-.66-1.13c0-.92.86-1.4,2.57-1.44a17,17,0,0,0,2.7-.24,8.78,8.78,0,0,0,5.54-3.39A14.59,14.59,0,0,0,418.52,236.87Zm-.45-5.79a6.49,6.49,0,0,0-1.42-4.35,4.5,4.5,0,0,0-3.61-1.67,4.2,4.2,0,0,0-3.4,1.57,6.32,6.32,0,0,0-1.29,4.13,6.54,6.54,0,0,0,1.36,4.29,4.33,4.33,0,0,0,3.5,1.65,4.43,4.43,0,0,0,3.48-1.59A5.92,5.92,0,0,0,418.07,231.08Z"/><path class="cls-10" d="M415.16,164l.28.41"/><path class="cls-11" d="M416,165.3c.53.84,1,1.73,1.48,2.65"/><path class="cls-12" d="M417.47,168a39.58,39.58,0,0,1,3.89,17.49c0,8.35-2.37,15.92-6.2,21.4s-9.13,8.86-15,8.86-11.15-3.38-15-8.86S379,193.79,379,185.44a37.84,37.84,0,0,1,5.93-21"/><path class="cls-10" d="M384.92,164.45c.09-.14.18-.28.28-.41"/><polygon class="cls-13" points="403.59 220.71 397.82 220.71 394.93 225.71 397.82 230.71 403.59 230.71 406.48 225.71 403.59 220.71"/><path class="cls-10" d="M418.25,166.49l.3.4"/><path class="cls-14" d="M419.13,167.7c.57.8,1.1,1.65,1.6,2.52"/><path class="cls-15" d="M420.73,170.22a40.53,40.53,0,0,1,5.08,20A39.13,39.13,0,0,1,418.25,214c-4.67,6.08-11.12,9.84-18.25,9.84s-13.58-3.76-18.25-9.84a41.16,41.16,0,0,1-.31-47.1"/><path class="cls-10" d="M381.45,166.89l.3-.4"/><path class="cls-3" d="M458.72,290.66V184.83a6.93,6.93,0,0,0-7-6.84H449a6.93,6.93,0,0,0-7,6.84V314.54a6.5,6.5,0,0,0,.49,2.46v4.39h16.72V290.66Z"/><path class="cls-3" d="M357.51,290.66V184.83a6.93,6.93,0,0,0-7-6.84h-2.76a6.93,6.93,0,0,0-7,6.84V314.54a6.7,6.7,0,0,0,.49,2.46v4.39H358V290.66Z"/><path class="cls-1" d="M345,189.66a4.55,4.55,0,0,0-3.79-1.89,3.27,3.27,0,0,0-.45,0v1.72a3.1,3.1,0,0,1,.54-.05,2.5,2.5,0,0,1,2,.93,3.6,3.6,0,0,1,.79,2.42,3.31,3.31,0,0,1-.77,2.24,2.45,2.45,0,0,1-1.93.88,2.61,2.61,0,0,1-.64-.08v1.78c.15,0,.29,0,.45,0a3.66,3.66,0,0,0,1.71-.41,4.42,4.42,0,0,0,1.43-1.23,8.28,8.28,0,0,1-1.49,4,4.91,4.91,0,0,1-2.1,1.59v1.77a6.74,6.74,0,0,0,3.57-2.2,9.73,9.73,0,0,0,2.11-6.57A8.06,8.06,0,0,0,345,189.66Z"/><rect class="cls-1" x="340.79" y="243.56" width="16.72" height="5.28"/><rect class="cls-1" x="340.79" y="253.72" width="16.72" height="5.28"/><rect class="cls-1" x="442.25" y="243.56" width="16.72" height="5.28"/><rect class="cls-1" x="442.25" y="253.72" width="16.72" height="5.28"/><path class="cls-16" d="M400.57,539.17a20.3,20.3,0,1,1,40.59,0"/><path class="cls-16" d="M399.43,539.17a20.3,20.3,0,1,0-40.59,0"/></svg>